<svg xmlns="http://www.w3.org/2000/svg" width="120" height="120" viewBox="0 0 36 36" fill="none">
<circle cx="17.5195" cy="17.5195" r="17.5195" fill="#E8FDE9"/>
<circle cx="17.6716" cy="17.5174" r="14.4217" fill="#32AE3B" fill-opacity="0.5"/>
<ellipse cx="17.4685" cy="17.5174" rx="10.5624" ry="10.3592" fill="#1B5E20"/>
<g clip-path="url(#clip0_2704_5862)">
<path fill-rule="evenodd" clip-rule="evenodd" d="M20.1916 15.3712C20.4707 15.6038 20.5084 16.0185 20.2758 16.2976L17.3983 19.7506C17.28 19.8926 17.1074 19.9783 16.9228 19.9866C16.7382 19.995 16.5586 19.9253 16.4279 19.7947L14.7014 18.0681C14.4445 17.8113 14.4445 17.3948 14.7014 17.138C14.9582 16.8811 15.3747 16.8811 15.6315 17.138L16.8488 18.3552L19.2653 15.4554C19.4978 15.1764 19.9126 15.1387 20.1916 15.3712Z" fill="#EEEEEE"/>
<path fill-rule="evenodd" clip-rule="evenodd" d="M17.4685 12.2178C14.6533 12.2178 12.3711 14.5 12.3711 17.3152C12.3711 20.1304 14.6533 22.4126 17.4685 22.4126C20.2837 22.4126 22.5659 20.1304 22.5659 17.3152C22.5659 14.5 20.2837 12.2178 17.4685 12.2178ZM11.0557 17.3152C11.0557 13.7735 13.9268 10.9023 17.4685 10.9023C21.0103 10.9023 23.8814 13.7735 23.8814 17.3152C23.8814 20.8569 21.0103 23.7281 17.4685 23.7281C13.9268 23.7281 11.0557 20.8569 11.0557 17.3152Z" fill="#EEEEEE"/>
</g>
<defs>
<clipPath id="clip0_2704_5862">
<rect width="13.8123" height="13.8123" fill="white" transform="translate(10.5624 10.4082)"/>
</clipPath>
</defs>
</svg>