<svg width="135" height="38" viewBox="0 0 135 38" fill="none" xmlns="http://www.w3.org/2000/svg">
<rect width="37.9294" height="37.9294" rx="9.1396" fill="#252525"/>
<path d="M19.5892 16.3716C19.0727 16.5916 18.5545 16.8072 18.0369 17.0246C16.8744 17.513 15.712 18.0017 14.5494 18.4901C14.3638 18.5681 14.2235 18.5208 14.1287 18.3484C13.8354 17.6304 13.5421 16.9123 13.2467 16.1887C13.3011 16.1622 13.343 16.1394 13.3867 16.1209C14.7543 15.547 16.1226 14.9747 17.4898 14.3996C18.3798 14.0252 19.2683 13.647 20.1574 13.2706C20.1816 13.2597 20.2057 13.2488 20.2299 13.2379C20.3391 13.1973 20.4489 13.1577 20.5577 13.1157C21.5406 12.7357 22.5601 12.6096 23.6073 12.6748C23.6692 12.6798 23.7311 12.6847 23.793 12.6898C23.9091 12.7088 24.0266 12.7212 24.1408 12.7479C24.5103 12.8344 24.8786 12.9261 25.2473 13.0159C25.3082 13.041 25.371 13.0625 25.4298 13.0917C25.8446 13.2977 26.2587 13.5053 26.673 13.7122C26.6817 13.7189 26.6904 13.7257 26.6992 13.7325C26.743 13.7515 26.7869 13.7706 26.8308 13.7896C26.8622 13.8113 26.8934 13.8329 26.9247 13.8546C27.2038 14.0857 27.483 14.317 27.7621 14.5482C27.7718 14.5576 27.7815 14.5671 27.7912 14.5765C27.8901 14.6761 27.9891 14.7757 28.088 14.8753C28.0982 14.8858 28.1085 14.8965 28.1188 14.9071C28.9485 15.7746 29.4014 16.8521 29.8263 17.9602C29.0196 18.2982 28.2211 18.6329 27.4077 18.9737C27.264 18.6299 27.1259 18.3029 26.9907 17.9747C26.689 17.2424 26.2327 16.6275 25.5963 16.1535C24.9319 15.6587 24.1901 15.3626 23.3568 15.3146C23.3205 15.3154 23.2841 15.3163 23.2478 15.3171C23.1509 15.3171 23.0539 15.3171 22.957 15.3171C22.9206 15.3171 22.8843 15.3171 22.8479 15.3171C22.6391 15.3347 22.4191 15.3166 22.2235 15.3771C21.7115 15.5349 21.209 15.7243 20.7047 15.9067C20.4234 16.0083 20.1462 16.1211 19.8671 16.2289L19.5896 16.3715L19.5892 16.3716Z" fill="#31FC65"/>
<path d="M11.1064 11.1275C10.89 10.5965 10.6736 10.0655 10.4489 9.51415C10.5183 9.48337 10.5868 9.45171 10.6564 9.42248C11.9436 8.882 13.231 8.34197 14.5181 7.80128C14.5569 7.78501 14.5937 7.7639 14.6314 7.745C14.6556 7.73412 14.6798 7.72323 14.704 7.71235C15.3379 7.44855 15.9719 7.18463 16.6058 6.92082C17.4756 6.55864 18.3325 6.14095 19.2856 6.05554C19.8407 6.00585 20.4031 6.03531 20.9621 6.03498C21.0938 6.03498 21.2255 6.05829 21.3571 6.07093C21.5136 6.10522 21.6708 6.13699 21.8266 6.17425C23.1215 6.48367 24.2298 7.12373 25.1683 8.06354C26.0571 8.95367 26.5752 10.0591 26.9984 11.2193C26.9962 11.2461 26.994 11.2729 26.9918 11.2997C26.2034 11.6326 25.4151 11.9655 24.6143 12.3036C24.4689 11.9564 24.3292 11.623 24.1895 11.2897C23.7536 10.2503 23.0331 9.47996 22.0059 9.01116C21.0138 8.55829 19.9923 8.49069 18.949 8.82254L18.8101 8.87541C18.7533 8.89332 18.6945 8.90673 18.6398 8.92971C17.135 9.56031 15.6302 10.1908 14.1263 10.8236C13.3969 11.1305 12.6696 11.4417 11.9413 11.751C11.786 11.8101 11.6308 11.8693 11.4624 11.9334C11.3642 11.7111 11.2682 11.4935 11.1722 11.2758C11.1503 11.2264 11.1283 11.177 11.1064 11.1275Z" fill="#31FC65"/>
<path d="M18.3543 21.5523C18.8708 21.3324 19.3891 21.1167 19.9067 20.8993C21.0692 20.4109 22.2316 19.9222 23.3941 19.4338C23.5798 19.3559 23.7201 19.4031 23.8149 19.5755C24.1082 20.2935 24.4014 21.0116 24.6969 21.7352C24.6425 21.7617 24.6006 21.7846 24.5568 21.803C23.1892 22.3769 21.821 22.9493 20.4538 23.5244C19.5638 23.8988 18.6753 24.2769 17.7861 24.6534C17.762 24.6642 17.7379 24.6751 17.7137 24.686C17.6044 24.7267 17.4946 24.7662 17.3858 24.8082C16.4029 25.1882 15.3834 25.3143 14.3362 25.2491C14.2743 25.2442 14.2124 25.2392 14.1506 25.2342C14.0345 25.2152 13.917 25.2027 13.8028 25.176C13.4332 25.0895 13.065 24.9978 12.6962 24.908C12.6353 24.883 12.5726 24.8614 12.5138 24.8322C12.0989 24.6262 11.6849 24.4187 11.2706 24.2117C11.2619 24.205 11.2532 24.1982 11.2444 24.1915C11.2005 24.1725 11.1567 24.1533 11.1127 24.1343C11.0814 24.1127 11.0502 24.091 11.0189 24.0694C10.7398 23.8382 10.4606 23.6069 10.1815 23.3758C10.1718 23.3663 10.162 23.3569 10.1524 23.3474C10.0534 23.2478 9.9545 23.1482 9.85558 23.0486C9.84535 23.0381 9.83502 23.0274 9.8248 23.0169C8.99502 22.1493 8.54215 21.0719 8.11731 19.9638C8.92401 19.6258 9.72246 19.2911 10.5359 18.9502C10.6795 19.294 10.8177 19.621 10.9529 19.9493C11.2545 20.6815 11.7109 21.2964 12.3472 21.7704C13.0117 22.2653 13.7534 22.5614 14.5867 22.6093C14.6231 22.6085 14.6595 22.6077 14.6958 22.6069C14.7927 22.6069 14.8897 22.6069 14.9866 22.6069C15.023 22.6069 15.0593 22.6069 15.0956 22.6069C15.3045 22.5892 15.5244 22.6073 15.7201 22.5469C16.2321 22.389 16.7345 22.1996 17.2389 22.0173C17.5201 21.9156 17.7974 21.8028 18.0764 21.695L18.354 21.5524L18.3543 21.5523Z" fill="#31FC65"/>
<path d="M26.8372 26.7965C27.0536 27.3275 27.2701 27.8585 27.4948 28.4099C27.4254 28.4407 27.3568 28.4723 27.2872 28.5016C26.0001 29.042 24.7127 29.5821 23.4255 30.1228C23.3867 30.139 23.3499 30.1601 23.3122 30.179C23.288 30.1899 23.2638 30.2008 23.2397 30.2117C22.6058 30.4755 21.9717 30.7394 21.3378 31.0032C20.4679 31.3653 19.6111 31.783 18.6579 31.8684C18.1028 31.9181 17.5405 31.8886 16.9814 31.8889C16.8497 31.8889 16.718 31.8656 16.5865 31.853C16.4299 31.8187 16.2728 31.7869 16.1169 31.7497C14.822 31.4403 13.7137 30.8002 12.7752 29.8604C11.8864 28.9703 11.3684 27.8648 10.9452 26.7046C10.9474 26.6778 10.9496 26.6511 10.9518 26.6243C11.7401 26.2913 12.5285 25.9585 13.3292 25.6204C13.4747 25.9675 13.6144 26.301 13.7541 26.6343C14.1899 27.6737 14.9104 28.444 15.9376 28.9128C16.9297 29.3656 17.9512 29.4332 18.9946 29.1014L19.1334 29.0485C19.1902 29.0306 19.249 29.0172 19.3038 28.9942C20.8086 28.3636 22.3134 27.7331 23.8173 27.1003C24.5466 26.7934 25.2739 26.4822 26.0023 26.1729C26.1576 26.1138 26.3128 26.0547 26.4812 25.9906C26.5793 26.2128 26.6753 26.4305 26.7714 26.6481C26.7932 26.6976 26.8152 26.7469 26.8371 26.7964L26.8372 26.7965Z" fill="#31FC65"/>
<path d="M55.6178 15.4837C55.5603 14.9043 55.3136 14.4541 54.8778 14.1332C54.442 13.8124 53.8506 13.6519 53.1035 13.6519C52.5959 13.6519 52.1672 13.7238 51.8176 13.8674C51.468 14.0063 51.1998 14.2003 51.0131 14.4493C50.8311 14.6983 50.7401 14.9809 50.7401 15.297C50.7305 15.5604 50.7856 15.7902 50.9053 15.9866C51.0298 16.1829 51.1998 16.353 51.4153 16.4966C51.6309 16.6355 51.8799 16.7576 52.1624 16.863C52.445 16.9636 52.7467 17.0498 53.0676 17.1216L54.3894 17.4377C55.0311 17.5813 55.6201 17.7729 56.1565 18.0124C56.6929 18.2518 57.1574 18.5463 57.5501 18.8959C57.9428 19.2455 58.2469 19.6574 58.4625 20.1315C58.6827 20.6056 58.7953 21.1492 58.8001 21.7622C58.7953 22.6625 58.5654 23.4432 58.1105 24.104C57.6603 24.7602 57.009 25.2702 56.1565 25.6342C55.3089 25.9933 54.2864 26.1729 53.0891 26.1729C51.9014 26.1729 50.867 25.9909 49.9858 25.627C49.1094 25.263 48.4246 24.7242 47.9313 24.0107C47.4428 23.2923 47.1866 22.4039 47.1627 21.3456H50.1726C50.2061 21.8388 50.3474 22.2507 50.5964 22.5811C50.8502 22.9068 51.1879 23.1534 51.6093 23.321C52.0355 23.4839 52.5168 23.5653 53.0532 23.5653C53.58 23.5653 54.0374 23.4887 54.4253 23.3354C54.818 23.1822 55.1221 22.969 55.3376 22.6961C55.5531 22.4231 55.6609 22.1094 55.6609 21.755C55.6609 21.4246 55.5627 21.1468 55.3663 20.9217C55.1748 20.6966 54.8922 20.5051 54.5187 20.347C54.1499 20.189 53.6973 20.0453 53.161 19.916L51.559 19.5137C50.3187 19.212 49.3393 18.7403 48.6209 18.0986C47.9026 17.4568 47.5458 16.5924 47.5506 15.5053C47.5458 14.6145 47.7828 13.8363 48.2618 13.1706C48.7454 12.5049 49.4087 11.9853 50.2516 11.6118C51.0945 11.2382 52.0523 11.0515 53.125 11.0515C54.2169 11.0515 55.17 11.2382 55.9841 11.6118C56.803 11.9853 57.44 12.5049 57.8949 13.1706C58.3499 13.8363 58.5846 14.6073 58.5989 15.4837H55.6178ZM67.9107 21.2665V14.9306H70.9709V25.9646H68.0328V23.9604H67.9179C67.6688 24.6069 67.2546 25.1265 66.6751 25.5192C66.1004 25.9119 65.3988 26.1083 64.5703 26.1083C63.8328 26.1083 63.1839 25.9407 62.6235 25.6054C62.0632 25.2702 61.625 24.7937 61.309 24.1759C60.9977 23.5581 60.8396 22.8182 60.8348 21.9562V14.9306H63.895V21.4102C63.8998 22.0615 64.0746 22.5763 64.4194 22.9547C64.7643 23.333 65.2264 23.5222 65.8059 23.5222C66.1746 23.5222 66.5194 23.4384 66.8403 23.2708C67.1612 23.0983 67.4198 22.8445 67.6161 22.5093C67.8173 22.1741 67.9155 21.7598 67.9107 21.2665ZM73.4762 25.9646V11.2526H76.5364V16.784H76.6298C76.7638 16.487 76.9578 16.1853 77.2116 15.8788C77.4702 15.5675 77.8055 15.3089 78.2173 15.103C78.634 14.8923 79.1512 14.7869 79.769 14.7869C80.5735 14.7869 81.3159 14.9977 81.9959 15.4191C82.6759 15.8357 83.2195 16.4655 83.6266 17.3084C84.0336 18.1465 84.2372 19.1977 84.2372 20.462C84.2372 21.6928 84.0384 22.732 83.6409 23.5796C83.2482 24.4225 82.7119 25.0619 82.0318 25.4977C81.3566 25.9287 80.5999 26.1442 79.7618 26.1442C79.168 26.1442 78.6627 26.046 78.2461 25.8497C77.8342 25.6533 77.4966 25.4067 77.2332 25.1098C76.9698 24.808 76.7686 24.5039 76.6298 24.1974H76.4933V25.9646H73.4762ZM76.4717 20.4476C76.4717 21.1037 76.5627 21.676 76.7447 22.1645C76.9267 22.653 77.1901 23.0337 77.5349 23.3067C77.8797 23.5749 78.2987 23.709 78.792 23.709C79.2901 23.709 79.7115 23.5725 80.0563 23.2995C80.4011 23.0217 80.6621 22.6386 80.8393 22.1501C81.0213 21.6568 81.1123 21.0893 81.1123 20.4476C81.1123 19.8107 81.0237 19.2503 80.8465 18.7666C80.6693 18.2829 80.4083 17.9046 80.0635 17.6316C79.7187 17.3587 79.2949 17.2222 78.792 17.2222C78.294 17.2222 77.8725 17.3539 77.5277 17.6173C77.1877 17.8807 76.9267 18.2542 76.7447 18.7379C76.5627 19.2216 76.4717 19.7915 76.4717 20.4476ZM94.4253 17.4018L92.9024 17.8328C92.8066 17.579 92.6653 17.3323 92.4786 17.0929C92.2966 16.8486 92.0475 16.6475 91.7315 16.4894C91.4154 16.3314 91.0107 16.2524 90.5174 16.2524C89.8422 16.2524 89.2795 16.408 88.8293 16.7193C88.3839 17.0258 88.1612 17.4161 88.1612 17.8902C88.1612 18.3117 88.3145 18.6445 88.621 18.8888C88.9275 19.133 89.4064 19.3365 90.0577 19.4994L91.6955 19.9016C92.6821 20.1411 93.4172 20.5075 93.9009 21.0007C94.3846 21.4892 94.6264 22.119 94.6264 22.89C94.6264 23.5222 94.4445 24.0873 94.0805 24.5854C93.7213 25.0834 93.2185 25.4761 92.5719 25.7635C91.9254 26.0508 91.1735 26.1945 90.3163 26.1945C89.1909 26.1945 88.2594 25.9502 87.5219 25.4617C86.7844 24.9733 86.3174 24.2597 86.1211 23.321L87.7302 22.9188C87.8834 23.5126 88.1732 23.958 88.5994 24.2549C89.0304 24.5518 89.5931 24.7003 90.2876 24.7003C91.0778 24.7003 91.7051 24.5327 92.1697 24.1974C92.639 23.8574 92.8737 23.4503 92.8737 22.9762C92.8737 22.5931 92.7396 22.2722 92.4714 22.0136C92.2032 21.7502 91.7913 21.5539 91.2358 21.4246L89.3968 20.9936C88.3863 20.7541 87.644 20.3829 87.1699 19.8801C86.7006 19.3725 86.4659 18.7379 86.4659 17.9764C86.4659 17.3539 86.6407 16.8031 86.9903 16.3242C87.3447 15.8453 87.826 15.4694 88.4342 15.1964C89.0472 14.9234 89.7416 14.7869 90.5174 14.7869C91.6093 14.7869 92.4666 15.0264 93.0892 15.5053C93.7165 15.9842 94.1619 16.6164 94.4253 17.4018ZM101.977 14.9306V16.3673H96.2589V14.9306H101.977ZM97.9255 12.287H99.6208V22.8038C99.6208 23.2827 99.6903 23.6419 99.8292 23.8814C99.9728 24.116 100.155 24.2741 100.375 24.3555C100.6 24.4321 100.837 24.4704 101.086 24.4704C101.273 24.4704 101.426 24.4608 101.546 24.4417C101.666 24.4177 101.762 24.3986 101.833 24.3842L102.178 25.9071C102.063 25.9502 101.903 25.9933 101.697 26.0364C101.491 26.0843 101.23 26.1083 100.914 26.1083C100.435 26.1083 99.9657 26.0053 99.5059 25.7994C99.0509 25.5934 98.6726 25.2798 98.3709 24.8583C98.074 24.4369 97.9255 23.9053 97.9255 23.2636V12.287ZM109.035 26.1945C107.972 26.1945 107.055 25.9598 106.284 25.4905C105.517 25.0164 104.926 24.3555 104.509 23.5078C104.097 22.6554 103.891 21.664 103.891 20.5338C103.891 19.4036 104.097 18.4075 104.509 17.5454C104.926 16.6786 105.505 16.0034 106.248 15.5197C106.995 15.0312 107.866 14.7869 108.863 14.7869C109.437 14.7869 110.005 14.8827 110.565 15.0743C111.125 15.2658 111.635 15.5771 112.095 16.0081C112.555 16.4344 112.921 16.9995 113.194 17.7035C113.467 18.4075 113.604 19.2743 113.604 20.3039V21.0223H105.098V19.5568H111.88C111.88 18.9343 111.755 18.3787 111.506 17.8902C111.262 17.4018 110.912 17.0162 110.457 16.7337C110.007 16.4511 109.476 16.3099 108.863 16.3099C108.187 16.3099 107.603 16.4775 107.11 16.8127C106.621 17.1431 106.245 17.5742 105.982 18.1058C105.719 18.6373 105.587 19.2072 105.587 19.8154V20.7924C105.587 21.6257 105.73 22.3321 106.018 22.9116C106.31 23.4863 106.715 23.9245 107.232 24.2262C107.749 24.5231 108.35 24.6716 109.035 24.6716C109.48 24.6716 109.883 24.6093 110.242 24.4848C110.606 24.3555 110.919 24.1639 111.183 23.9101C111.446 23.6515 111.65 23.3306 111.793 22.9475L113.431 23.4072C113.259 23.9628 112.969 24.4513 112.562 24.8727C112.155 25.2893 111.652 25.615 111.054 25.8497C110.455 26.0795 109.782 26.1945 109.035 26.1945ZM120.809 26.1945C119.746 26.1945 118.829 25.9598 118.058 25.4905C117.291 25.0164 116.7 24.3555 116.283 23.5078C115.871 22.6554 115.665 21.664 115.665 20.5338C115.665 19.4036 115.871 18.4075 116.283 17.5454C116.7 16.6786 117.279 16.0034 118.022 15.5197C118.769 15.0312 119.64 14.7869 120.636 14.7869C121.211 14.7869 121.779 14.8827 122.339 15.0743C122.899 15.2658 123.409 15.5771 123.869 16.0081C124.329 16.4344 124.695 16.9995 124.968 17.7035C125.241 18.4075 125.378 19.2743 125.378 20.3039V21.0223H116.872V19.5568H123.654C123.654 18.9343 123.529 18.3787 123.28 17.8902C123.036 17.4018 122.686 17.0162 122.231 16.7337C121.781 16.4511 121.249 16.3099 120.636 16.3099C119.961 16.3099 119.377 16.4775 118.884 16.8127C118.395 17.1431 118.019 17.5742 117.756 18.1058C117.492 18.6373 117.361 19.2072 117.361 19.8154V20.7924C117.361 21.6257 117.504 22.3321 117.792 22.9116C118.084 23.4863 118.489 23.9245 119.006 24.2262C119.523 24.5231 120.124 24.6716 120.809 24.6716C121.254 24.6716 121.657 24.6093 122.016 24.4848C122.38 24.3555 122.693 24.1639 122.957 23.9101C123.22 23.6515 123.424 23.3306 123.567 22.9475L125.205 23.4072C125.033 23.9628 124.743 24.4513 124.336 24.8727C123.929 25.2893 123.426 25.615 122.827 25.8497C122.229 26.0795 121.556 26.1945 120.809 26.1945ZM127.957 25.9646V14.9306H129.594V16.5972H129.709C129.91 16.0512 130.274 15.6083 130.801 15.2682C131.328 14.9282 131.922 14.7582 132.583 14.7582C132.707 14.7582 132.863 14.7606 133.05 14.7654C133.236 14.7702 133.378 14.7774 133.474 14.7869V16.511C133.416 16.4966 133.284 16.4751 133.078 16.4463C132.877 16.4128 132.664 16.3961 132.439 16.3961C131.903 16.3961 131.424 16.5086 131.002 16.7337C130.586 16.954 130.255 17.2605 130.011 17.6532C129.772 18.0411 129.652 18.4841 129.652 18.9821V25.9646H127.957Z" fill="#252525"/>
</svg>
