<svg width="181" height="52" viewBox="0 0 181 52" fill="none" xmlns="http://www.w3.org/2000/svg">
<rect width="51.0676" height="51.0676" rx="12.3055" fill="#252525"/>
<path d="M26.3747 22.0425C25.6793 22.3386 24.9815 22.629 24.2846 22.9217C22.7194 23.5792 21.1544 24.2372 19.5892 24.8947C19.3392 24.9997 19.1503 24.9361 19.0226 24.704C18.6278 23.7373 18.233 22.7704 17.8351 21.7962C17.9084 21.7605 17.9648 21.7297 18.0237 21.7049C19.865 20.9322 21.7073 20.1616 23.548 19.3873C24.7463 18.8832 25.9426 18.3741 27.1397 17.8672C27.1722 17.8526 27.2046 17.8379 27.2372 17.8233C27.3843 17.7685 27.5322 17.7153 27.6787 17.6587C29.002 17.1471 30.3747 16.9774 31.7846 17.0651C31.8679 17.0718 31.9513 17.0784 32.0346 17.0852C32.1909 17.1109 32.3491 17.1276 32.5028 17.1635C33.0004 17.28 33.4962 17.4034 33.9927 17.5243C34.0747 17.5581 34.1592 17.5871 34.2384 17.6265C34.7969 17.9038 35.3544 18.1832 35.9122 18.4619C35.9239 18.4709 35.9356 18.4801 35.9474 18.4891C36.0064 18.5147 36.0655 18.5405 36.1247 18.5661C36.1669 18.5952 36.2089 18.6244 36.2511 18.6535C36.6268 18.9648 37.0027 19.2762 37.3785 19.5874C37.3915 19.6001 37.4047 19.6128 37.4177 19.6256C37.5509 19.7596 37.6841 19.8937 37.8173 20.0278C37.8311 20.042 37.845 20.0564 37.8587 20.0706C38.9759 21.2387 39.5857 22.6893 40.1577 24.1813C39.0715 24.6363 37.9965 25.087 36.9014 25.5459C36.7079 25.083 36.5219 24.6427 36.3399 24.2008C35.9338 23.2149 35.3193 22.387 34.4626 21.7488C33.5679 21.0826 32.5693 20.6839 31.4473 20.6193C31.3984 20.6204 31.3494 20.6216 31.3005 20.6226C31.17 20.6226 31.0395 20.6226 30.9089 20.6226C30.86 20.6226 30.8111 20.6226 30.7621 20.6226C30.4809 20.6464 30.1848 20.622 29.9214 20.7034C29.232 20.9159 28.5555 21.1709 27.8765 21.4164C27.4978 21.5533 27.1246 21.7052 26.7488 21.8504L26.3751 22.0423L26.3747 22.0425Z" fill="#31FC65"/>
<path d="M14.9535 14.982C14.6621 14.267 14.3707 13.5521 14.0682 12.8097C14.1616 12.7683 14.254 12.7257 14.3476 12.6863C16.0807 11.9586 17.814 11.2315 19.547 10.5035C19.5992 10.4816 19.6488 10.4532 19.6996 10.4278C19.7321 10.4131 19.7647 10.3984 19.7972 10.3838C20.6507 10.0286 21.5043 9.67328 22.3578 9.31809C23.5289 8.83045 24.6827 8.26807 25.9659 8.15308C26.7133 8.08619 27.4704 8.12585 28.2231 8.12541C28.4004 8.12541 28.5777 8.15678 28.7549 8.1738C28.9656 8.21998 29.1772 8.26275 29.3871 8.31292C31.1305 8.72952 32.6227 9.59129 33.8863 10.8566C35.0829 12.0551 35.7804 13.5435 36.3502 15.1055C36.3473 15.1417 36.3443 15.1776 36.3413 15.2137C35.2799 15.662 34.2185 16.1101 33.1404 16.5654C32.9446 16.098 32.7565 15.649 32.5684 15.2003C31.9816 13.8008 31.0115 12.7637 29.6285 12.1325C28.2927 11.5228 26.9174 11.4317 25.5126 11.8785L25.3257 11.9497C25.2492 11.9738 25.17 11.9919 25.0963 12.0228C23.0703 12.8719 21.0442 13.7208 19.0194 14.5728C18.0374 14.986 17.0582 15.4049 16.0776 15.8214C15.8684 15.901 15.6595 15.9806 15.4327 16.0669C15.3006 15.7677 15.1714 15.4746 15.042 15.1816C15.0126 15.115 14.983 15.0486 14.9535 14.982Z" fill="#31FC65"/>
<path d="M24.712 29.0179C25.4074 28.7217 26.1052 28.4314 26.8021 28.1386C28.3673 27.4811 29.9323 26.8231 31.4975 26.1656C31.7475 26.0606 31.9364 26.1242 32.064 26.3563C32.4589 27.323 32.8537 28.2899 33.2515 29.2641C33.1783 29.2998 33.1219 29.3306 33.063 29.3554C31.2217 30.1281 29.3794 30.8987 27.5387 31.673C26.3404 32.1771 25.1441 32.6862 23.947 33.1931C23.9145 33.2077 23.882 33.2224 23.8495 33.237C23.7024 33.2918 23.5545 33.3451 23.408 33.4016C22.0847 33.9132 20.712 34.083 19.3021 33.9952C19.2188 33.9885 19.1354 33.9819 19.0521 33.9751C18.8958 33.9495 18.7376 33.9327 18.5839 33.8968C18.0863 33.7803 17.5905 33.6569 17.094 33.536C17.012 33.5022 16.9275 33.4732 16.8483 33.4339C16.2898 33.1565 15.7323 32.8771 15.1745 32.5984C15.1628 32.5894 15.1511 32.5802 15.1393 32.5712C15.0802 32.5456 15.0212 32.5198 14.962 32.4942C14.9198 32.4651 14.8778 32.4359 14.8356 32.4068C14.4599 32.0956 14.084 31.7842 13.7082 31.4729C13.6952 31.4602 13.682 31.4475 13.669 31.4348C13.5358 31.3007 13.4026 31.1666 13.2694 31.0325C13.2556 31.0183 13.2417 31.0039 13.228 30.9897C12.1107 29.8216 11.501 28.371 10.929 26.8791C12.0151 26.424 13.0902 25.9733 14.1853 25.5144C14.3788 25.9773 14.5648 26.4176 14.7468 26.8595C15.1529 27.8455 15.7674 28.6733 16.6241 29.3115C17.5187 29.9778 18.5174 30.3765 19.6394 30.441C19.6883 30.4399 19.7373 30.4388 19.7862 30.4377C19.9167 30.4377 20.0472 30.4377 20.1778 30.4377C20.2267 30.4377 20.2756 30.4377 20.3246 30.4377C20.6058 30.4139 20.9019 30.4383 21.1653 30.3569C21.8547 30.1444 22.5312 29.8894 23.2102 29.6439C23.5889 29.507 23.9621 29.3551 24.3379 29.21L24.7116 29.018L24.712 29.0179Z" fill="#31FC65"/>
<path d="M36.1333 36.0784C36.4247 36.7934 36.7161 37.5083 37.0186 38.2507C36.9252 38.2921 36.8328 38.3347 36.7392 38.3741C35.0062 39.1018 33.2729 39.8289 31.5398 40.5569C31.4876 40.5788 31.438 40.6072 31.3873 40.6326C31.3547 40.6473 31.3221 40.6619 31.2896 40.6766C30.4361 41.0318 29.5825 41.3871 28.729 41.7423C27.5578 42.2298 26.4042 42.7922 25.1207 42.9071C24.3734 42.974 23.6162 42.9344 22.8635 42.9348C22.6862 42.9348 22.5089 42.9035 22.3318 42.8864C22.1211 42.8403 21.9094 42.7975 21.6996 42.7473C19.9562 42.3307 18.464 41.4689 17.2004 40.2036C16.0037 39.0051 15.3062 37.5168 14.7365 35.9547C14.7394 35.9186 14.7424 35.8826 14.7453 35.8465C15.8067 35.3982 16.8682 34.9501 17.9463 34.4949C18.1421 34.9622 18.3302 35.4113 18.5183 35.86C19.1051 37.2594 20.0752 38.2965 21.4582 38.9277C22.794 39.5375 24.1693 39.6285 25.5741 39.1817L25.761 39.1105C25.8375 39.0864 25.9167 39.0683 25.9904 39.0374C28.0164 38.1884 30.0424 37.3395 32.0673 36.4875C33.0492 36.0743 34.0285 35.6553 35.0091 35.2388C35.2182 35.1592 35.4272 35.0796 35.6539 34.9933C35.7861 35.2926 35.9153 35.5856 36.0446 35.8786C36.0741 35.9452 36.1037 36.0117 36.1331 36.0783L36.1333 36.0784Z" fill="#31FC65"/>
<path d="M74.8831 20.9225C74.8057 20.1423 74.4737 19.5362 73.8869 19.1042C73.3001 18.6722 72.5038 18.4562 71.4979 18.4562C70.8144 18.4562 70.2374 18.5529 69.7667 18.7463C69.296 18.9333 68.9349 19.1945 68.6834 19.5298C68.4384 19.865 68.3159 20.2455 68.3159 20.671C68.303 21.0257 68.3771 21.3352 68.5383 21.5995C68.706 21.8639 68.9349 22.0928 69.225 22.2862C69.5152 22.4732 69.8505 22.6377 70.2309 22.7795C70.6113 22.9149 71.0176 23.031 71.4496 23.1277L73.2292 23.5533C74.0932 23.7467 74.8863 24.0046 75.6085 24.327C76.3307 24.6494 76.9561 25.046 77.4848 25.5167C78.0136 25.9874 78.423 26.5419 78.7132 27.1802C79.0098 27.8186 79.1613 28.5504 79.1677 29.3758C79.1613 30.588 78.8518 31.639 78.2392 32.5288C77.6331 33.4122 76.7562 34.0989 75.6085 34.5889C74.4672 35.0725 73.0906 35.3143 71.4786 35.3143C69.8795 35.3143 68.4867 35.0693 67.3003 34.5792C66.1204 34.0892 65.1983 33.3638 64.5342 32.4031C63.8765 31.4359 63.5315 30.2398 63.4993 28.8148H67.5518C67.5969 29.4789 67.7871 30.0334 68.1224 30.4783C68.4642 30.9168 68.9188 31.2489 69.4862 31.4746C70.06 31.6938 70.7081 31.8034 71.4302 31.8034C72.1395 31.8034 72.7553 31.7002 73.2776 31.4939C73.8063 31.2876 74.2157 31.0006 74.5059 30.6331C74.796 30.2656 74.9411 29.8432 74.9411 29.3661C74.9411 28.9212 74.8089 28.5472 74.5446 28.2441C74.2867 27.9411 73.9062 27.6832 73.4033 27.4704C72.9068 27.2576 72.2975 27.0642 71.5753 26.8901L69.4185 26.3484C67.7485 25.9422 66.4299 25.3071 65.4627 24.4431C64.4955 23.5791 64.0151 22.4152 64.0216 20.9515C64.0151 19.7522 64.3343 18.7044 64.9791 17.8082C65.6303 16.9119 66.5233 16.2123 67.6582 15.7094C68.793 15.2064 70.0826 14.9549 71.5269 14.9549C72.9971 14.9549 74.2802 15.2064 75.3764 15.7094C76.479 16.2123 77.3365 16.9119 77.9491 17.8082C78.5616 18.7044 78.8776 19.7425 78.8969 20.9225H74.8831ZM91.4341 28.7084V20.1778H95.5544V35.0338H91.5986V32.3354H91.4438C91.1085 33.2058 90.5508 33.9054 89.7706 34.4342C88.9968 34.9629 88.0522 35.2273 86.9367 35.2273C85.9437 35.2273 85.07 35.0016 84.3156 34.5502C83.5612 34.0989 82.9712 33.4573 82.5457 32.6255C82.1265 31.7937 81.9138 30.7975 81.9073 29.6369V20.1778H86.0275V28.9018C86.034 29.7787 86.2693 30.4719 86.7336 30.9813C87.1978 31.4907 87.8201 31.7454 88.6003 31.7454C89.0968 31.7454 89.561 31.6325 89.993 31.4069C90.425 31.1747 90.7732 30.833 91.0376 30.3816C91.3084 29.9303 91.4406 29.3725 91.4341 28.7084ZM98.9274 35.0338V15.2258H103.048V22.6731H103.173C103.354 22.2734 103.615 21.8671 103.957 21.4545C104.305 21.0353 104.756 20.6872 105.311 20.4099C105.872 20.1262 106.568 19.9843 107.4 19.9843C108.483 19.9843 109.483 20.268 110.398 20.8355C111.314 21.3964 112.046 22.2443 112.594 23.3792C113.142 24.5076 113.416 25.9229 113.416 27.6251C113.416 29.2823 113.148 30.6815 112.613 31.8227C112.084 32.9576 111.362 33.8184 110.447 34.4051C109.538 34.9855 108.519 35.2756 107.39 35.2756C106.591 35.2756 105.911 35.1434 105.35 34.8791C104.795 34.6147 104.34 34.2826 103.986 33.8829C103.631 33.4766 103.36 33.0672 103.173 32.6545H102.99V35.0338H98.9274ZM102.961 27.6058C102.961 28.4892 103.083 29.2597 103.328 29.9174C103.573 30.5751 103.928 31.0877 104.392 31.4552C104.856 31.8163 105.421 31.9968 106.085 31.9968C106.755 31.9968 107.323 31.8131 107.787 31.4455C108.251 31.0716 108.603 30.5557 108.841 29.898C109.086 29.2339 109.209 28.4698 109.209 27.6058C109.209 26.7482 109.089 25.9938 108.851 25.3426C108.612 24.6913 108.261 24.1819 107.797 23.8144C107.332 23.4469 106.762 23.2631 106.085 23.2631C105.414 23.2631 104.847 23.4404 104.382 23.7951C103.925 24.1497 103.573 24.6526 103.328 25.3039C103.083 25.9551 102.961 26.7224 102.961 27.6058ZM127.133 23.5049L125.083 24.0852C124.954 23.7435 124.764 23.4114 124.512 23.089C124.267 22.7602 123.932 22.4894 123.506 22.2766C123.081 22.0638 122.536 21.9574 121.872 21.9574C120.962 21.9574 120.205 22.167 119.599 22.5861C118.999 22.9987 118.699 23.5243 118.699 24.1626C118.699 24.73 118.906 25.1781 119.318 25.507C119.731 25.8358 120.376 26.1099 121.253 26.3291L123.458 26.8707C124.786 27.1931 125.776 27.6864 126.427 28.3505C127.078 29.0082 127.404 29.8561 127.404 30.8942C127.404 31.7454 127.159 32.5062 126.669 33.1768C126.185 33.8474 125.508 34.3761 124.638 34.763C123.767 35.1499 122.755 35.3433 121.601 35.3433C120.086 35.3433 118.831 35.0145 117.838 34.3568C116.845 33.6991 116.217 32.7383 115.952 31.4746L118.119 30.9329C118.325 31.7325 118.715 32.3321 119.289 32.7319C119.87 33.1317 120.627 33.3316 121.562 33.3316C122.626 33.3316 123.471 33.1059 124.096 32.6545C124.728 32.1967 125.044 31.6486 125.044 31.0103C125.044 30.4945 124.863 30.0625 124.502 29.7143C124.141 29.3596 123.587 29.0953 122.839 28.9212L120.363 28.3409C119.002 28.0185 118.003 27.5187 117.365 26.8417C116.733 26.1582 116.417 25.3039 116.417 24.2787C116.417 23.4404 116.652 22.6989 117.123 22.0541C117.6 21.4093 118.248 20.9032 119.067 20.5356C119.892 20.1681 120.827 19.9843 121.872 19.9843C123.342 19.9843 124.496 20.3067 125.334 20.9515C126.179 21.5963 126.778 22.4474 127.133 23.5049ZM137.301 20.1778V22.1122H129.602V20.1778H137.301ZM131.846 16.6185H134.128V30.7782C134.128 31.423 134.222 31.9066 134.409 32.229C134.602 32.5449 134.847 32.7577 135.144 32.8673C135.447 32.9705 135.766 33.0221 136.101 33.0221C136.353 33.0221 136.559 33.0092 136.72 32.9834C136.882 32.9511 137.011 32.9253 137.107 32.906L137.572 34.9564C137.417 35.0145 137.201 35.0725 136.924 35.1305C136.646 35.195 136.295 35.2273 135.869 35.2273C135.224 35.2273 134.593 35.0886 133.974 34.8114C133.361 34.5341 132.852 34.1118 132.445 33.5443C132.046 32.9769 131.846 32.2612 131.846 31.3972V16.6185ZM146.803 35.3433C145.372 35.3433 144.137 35.0274 143.099 34.3955C142.067 33.7571 141.271 32.8673 140.71 31.726C140.156 30.5783 139.878 29.2436 139.878 27.7219C139.878 26.2001 140.156 24.859 140.71 23.6983C141.271 22.5313 142.051 21.6221 143.051 20.9709C144.057 20.3132 145.23 19.9843 146.571 19.9843C147.345 19.9843 148.109 20.1133 148.863 20.3712C149.618 20.6291 150.305 21.0482 150.924 21.6286C151.543 22.2024 152.036 22.9633 152.403 23.9111C152.771 24.859 152.955 26.026 152.955 27.4124V28.3795H141.503V26.4065H150.633C150.633 25.5682 150.466 24.8203 150.13 24.1626C149.802 23.5049 149.331 22.9858 148.718 22.6054C148.112 22.225 147.397 22.0348 146.571 22.0348C145.662 22.0348 144.875 22.2605 144.211 22.7118C143.554 23.1567 143.047 23.737 142.693 24.4528C142.338 25.1685 142.161 25.9358 142.161 26.7547V28.07C142.161 29.192 142.354 30.1431 142.741 30.9233C143.134 31.697 143.679 32.287 144.376 32.6932C145.072 33.093 145.881 33.2929 146.803 33.2929C147.403 33.2929 147.945 33.209 148.428 33.0414C148.918 32.8673 149.341 32.6094 149.695 32.2676C150.05 31.9195 150.324 31.4874 150.517 30.9716L152.723 31.5906C152.49 32.3386 152.1 32.9963 151.552 33.5637C151.004 34.1247 150.327 34.5631 149.521 34.8791C148.715 35.1886 147.809 35.3433 146.803 35.3433ZM162.656 35.3433C161.224 35.3433 159.989 35.0274 158.951 34.3955C157.92 33.7571 157.123 32.8673 156.562 31.726C156.008 30.5783 155.731 29.2436 155.731 27.7219C155.731 26.2001 156.008 24.859 156.562 23.6983C157.123 22.5313 157.903 21.6221 158.903 20.9709C159.909 20.3132 161.082 19.9843 162.423 19.9843C163.197 19.9843 163.961 20.1133 164.716 20.3712C165.47 20.6291 166.157 21.0482 166.776 21.6286C167.395 22.2024 167.888 22.9633 168.256 23.9111C168.623 24.859 168.807 26.026 168.807 27.4124V28.3795H157.355V26.4065H166.486C166.486 25.5682 166.318 24.8203 165.983 24.1626C165.654 23.5049 165.183 22.9858 164.571 22.6054C163.965 22.225 163.249 22.0348 162.423 22.0348C161.514 22.0348 160.728 22.2605 160.064 22.7118C159.406 23.1567 158.9 23.737 158.545 24.4528C158.19 25.1685 158.013 25.9358 158.013 26.7547V28.07C158.013 29.192 158.207 30.1431 158.593 30.9233C158.987 31.697 159.532 32.287 160.228 32.6932C160.924 33.093 161.734 33.2929 162.656 33.2929C163.255 33.2929 163.797 33.209 164.28 33.0414C164.771 32.8673 165.193 32.6094 165.547 32.2676C165.902 31.9195 166.176 31.4874 166.37 30.9716L168.575 31.5906C168.343 32.3386 167.953 32.9963 167.404 33.5637C166.856 34.1247 166.179 34.5631 165.373 34.8791C164.567 35.1886 163.661 35.3433 162.656 35.3433ZM172.279 35.0338V20.1778H174.484V22.4217H174.639C174.91 21.6866 175.4 21.0902 176.109 20.6324C176.818 20.1745 177.618 19.9456 178.508 19.9456C178.675 19.9456 178.885 19.9489 179.137 19.9553C179.388 19.9618 179.578 19.9714 179.707 19.9843V22.3056C179.63 22.2862 179.452 22.2572 179.175 22.2185C178.904 22.1734 178.617 22.1508 178.314 22.1508C177.592 22.1508 176.947 22.3024 176.38 22.6054C175.819 22.902 175.374 23.3147 175.045 23.8434C174.723 24.3657 174.562 24.9621 174.562 25.6327V35.0338H172.279Z" fill="#252525"/>
</svg>
