<svg width="187" height="28" viewBox="0 0 187 28" fill="none" xmlns="http://www.w3.org/2000/svg">
<path d="M4.18367 16.6512C4.20632 16.9101 4.048 17.0882 3.70871 17.1855C3.26563 17.3112 2.99639 17.4362 2.90099 17.5605C1.92613 18.7858 1.51713 20.295 1.67399 22.0879C1.74781 22.9316 1.95166 23.7157 2.28555 24.44C2.55976 25.0344 2.75319 25.4232 2.86584 25.6066C3.14664 26.0554 3.46843 26.3654 3.83121 26.5365C3.98089 26.5911 4.13016 26.6408 4.27902 26.6858C4.43997 26.7586 4.52716 26.8718 4.54058 27.0252C4.554 27.1786 4.51343 27.3222 4.41887 27.4561C4.3339 27.5891 4.23262 27.6463 4.11505 27.6276C3.98873 27.6193 3.79152 27.5738 3.52343 27.4909C3.03972 27.2627 2.49124 26.7359 1.87799 25.9104C1.72447 25.7016 1.56573 25.4884 1.40178 25.2709C1.24658 25.043 1.1262 24.8265 1.04063 24.6214C0.979267 24.4722 0.843666 23.8609 0.633824 22.7875C0.566114 22.4553 0.518418 22.131 0.490737 21.8146C0.342264 20.1176 0.709794 18.6314 1.59333 17.3561C2.1082 16.6154 2.67725 16.2179 3.30046 16.1633C3.56892 16.1398 3.82054 16.2 4.05532 16.3437C4.12663 16.3857 4.16941 16.4883 4.18367 16.6512ZM8.734 23.3107C8.71567 23.3219 8.18959 23.7689 7.15577 24.6516C6.55365 25.168 6.01295 25.5583 5.53368 25.8224C5.47867 25.8562 5.4224 25.8756 5.36487 25.8807C5.23064 25.8924 5.09845 25.817 4.9683 25.6545C4.77558 25.4395 4.67401 25.3276 4.66359 25.3189C4.57059 24.4768 4.52057 23.2977 4.51352 21.7815C4.51725 20.1677 4.48808 19.0061 4.42601 18.2966C4.38323 17.8076 4.32379 17.3491 4.24769 16.921C4.36143 16.7854 4.51417 16.7093 4.70593 16.6925C5.07027 16.6606 5.29294 16.7764 5.37396 17.0398C5.4715 17.8235 5.54112 19.0058 5.58281 20.5866C5.62366 22.1578 5.68807 23.3356 5.77603 24.1202C6.03442 23.9816 6.36676 23.7496 6.77305 23.4243C7.21433 23.0572 7.53583 22.8117 7.73754 22.6878C7.78547 22.6836 7.86613 22.6668 7.97951 22.6376C8.10247 22.6075 8.19272 22.59 8.25025 22.5849C8.442 22.5682 8.58774 22.6327 8.68745 22.7785C8.82096 22.9794 8.83648 23.1568 8.734 23.3107ZM10.291 17.5226C10.3345 17.799 10.3693 18.0858 10.3953 18.383C10.4523 19.035 10.4712 20.0236 10.4519 21.3489C10.4325 22.6742 10.4523 23.6724 10.511 24.3435C10.5328 24.5928 10.559 24.8369 10.5895 25.0758C10.5267 25.3518 10.3511 25.4976 10.0626 25.5131C9.64865 25.53 9.40782 25.3724 9.34011 25.0401C9.2724 24.7079 9.22219 24.3549 9.18947 23.9809C9.13243 23.329 9.12399 22.3491 9.16416 21.0413C9.21391 19.7327 9.21068 18.7572 9.15448 18.1148C9.13267 17.8655 9.1017 17.6219 9.06155 17.3838C9.14149 17.1933 9.29651 17.0879 9.52662 17.0678C9.70879 17.0519 9.89557 17.0887 10.087 17.1782C10.1228 17.1461 10.1503 17.1292 10.1695 17.1275C10.1982 17.125 10.2168 17.1717 10.2252 17.2675C10.2257 17.3834 10.2316 17.4505 10.2428 17.4689C10.2549 17.4968 10.271 17.5147 10.291 17.5226ZM14.9138 15.7125C14.9365 15.9713 14.7781 16.1494 14.4389 16.2468C13.9958 16.3725 13.7265 16.4975 13.6311 16.6217C12.6563 17.8471 12.2473 19.3562 12.4041 21.1491C12.478 21.9928 12.6818 22.7769 13.0157 23.5013C13.2899 24.0956 13.4833 24.4844 13.596 24.6678C13.8768 25.1166 14.1986 25.4266 14.5614 25.5978C14.711 25.6523 14.8603 25.702 15.0092 25.747C15.1701 25.8199 15.2573 25.933 15.2707 26.0864C15.2841 26.2398 15.2436 26.3834 15.149 26.5173C15.064 26.6503 14.9628 26.7075 14.8452 26.6888C14.7189 26.6805 14.5217 26.635 14.2536 26.5522C13.7699 26.324 13.2214 25.7971 12.6081 24.9716C12.4546 24.7628 12.2959 24.5497 12.1319 24.3322C11.9767 24.1042 11.8563 23.8877 11.7708 23.6826C11.7094 23.5334 11.5738 22.9221 11.364 21.8488C11.2963 21.5166 11.2486 21.1922 11.2209 20.8758C11.0724 19.1788 11.4399 17.6926 12.3235 16.4173C12.8383 15.6767 13.4074 15.2791 14.0306 15.2246C14.2991 15.2011 14.5507 15.2612 14.7855 15.4049C14.8568 15.447 14.8996 15.5495 14.9138 15.7125ZM20.3319 23.18C20.3936 23.2229 20.4283 23.2875 20.4358 23.3738C20.4408 23.4313 20.4151 23.5785 20.3585 23.8153C20.3193 23.8091 20.2853 23.8072 20.2566 23.8097C20.199 23.8148 20.1244 23.8454 20.0328 23.9018C19.9507 23.9573 19.8856 23.9871 19.8377 23.9913C19.7898 23.9955 19.7353 23.9809 19.6745 23.9476C18.9968 23.6011 17.9469 23.0843 16.5245 22.3972C16.5843 22.7495 16.6527 23.2555 16.7298 23.9154C16.7365 23.9921 16.7562 24.1063 16.7888 24.258C16.8214 24.4098 16.8406 24.5192 16.8465 24.5863C16.8666 24.8164 16.7798 24.9834 16.586 25.0873C16.5318 25.1307 16.452 25.157 16.3465 25.1662C16.2315 25.1763 16.1566 25.149 16.122 25.0844C15.8651 25.02 15.7066 24.8648 15.6465 24.6188C15.471 23.9386 15.3426 23.1334 15.2613 22.2034C15.2319 21.8678 15.1979 21.3684 15.1592 20.7052C15.1196 20.0324 15.0852 19.5282 15.0558 19.1926C14.9669 18.1763 14.8226 17.3001 14.623 16.564C14.5937 16.4506 14.6541 16.368 14.8042 16.3162C14.9175 16.287 15.0357 16.2573 15.1587 16.2273C15.2867 16.2547 15.4203 16.2913 15.5596 16.3371C15.698 16.3733 15.777 16.4485 15.7967 16.5627C16.0546 17.8541 16.2075 18.8841 16.2554 19.6528C16.6175 19.2637 17.027 18.7544 17.484 18.1251C17.8727 17.5984 18.2561 17.0673 18.6344 16.5318C18.7452 16.4738 18.8678 16.4389 19.002 16.4272C19.3759 16.3945 19.5838 16.5067 19.6256 16.7639C19.4092 17.3819 18.9435 18.1327 18.2286 19.0164C17.3912 20.0462 16.8607 20.7737 16.6371 21.199C17.2626 21.5018 17.8928 21.8041 18.5279 22.106C19.236 22.4692 19.8373 22.8272 20.3319 23.18ZM29.0604 20.0832C28.6063 21.4078 27.872 22.2353 26.8575 22.5656C26.7353 22.6053 26.6119 22.6306 26.4873 22.6415C25.9408 22.6893 25.3635 22.4403 24.7554 21.8945C24.3462 21.5245 24.1135 21.0183 24.0573 20.376C23.9953 19.6664 24.1395 18.8858 24.4901 18.0339C24.6421 17.6728 24.8366 17.3563 25.0736 17.0843C25.3449 16.7611 25.6147 16.5878 25.8832 16.5643C26.0366 16.5508 26.1854 16.5958 26.3297 16.6991C26.474 16.8024 26.847 16.9244 27.4486 17.0649C27.9222 17.1781 28.2709 17.4084 28.4945 17.756C28.8863 18.369 29.1023 18.9057 29.1426 19.3659C29.1652 19.6247 29.1378 19.8638 29.0604 20.0832ZM27.8319 19.2921C27.7035 18.5981 27.48 18.1974 27.1615 18.09C27.1119 18.075 27.0679 18.0692 27.0295 18.0726C26.9145 18.0826 26.7791 18.1911 26.6233 18.3979C26.4508 18.6352 26.3135 18.7777 26.2114 18.8253C26.1468 18.8599 26.0484 18.8395 25.9162 18.7641C25.784 18.6888 25.6987 18.6527 25.6604 18.6561C25.6316 18.6586 25.6085 18.6703 25.591 18.6911C25.2806 19.0081 25.1518 19.4687 25.2047 20.0727C25.2407 20.485 25.3672 20.8265 25.5841 21.0974C25.887 21.467 26.1295 21.6438 26.3117 21.6279C26.7335 21.591 27.118 21.2917 27.4649 20.73C27.7952 20.1987 27.9175 19.7194 27.8319 19.2921ZM35.2973 13.8857C35.2755 15.1822 35.2589 16.4831 35.2475 17.7883C35.2187 19.3367 35.2492 20.6238 35.3389 21.6497C35.3683 21.9852 35.4068 22.3152 35.4545 22.6395C35.4775 22.7921 35.4318 22.9313 35.3172 23.0573C35.2122 23.1824 35.083 23.2517 34.9296 23.2651C34.6324 23.2911 34.3655 23.1116 34.1289 22.7265C33.4104 21.5817 32.4838 19.7692 31.349 17.2889C31.3247 17.233 31.2983 17.2064 31.2695 17.2089C31.2024 17.2148 31.1651 17.2857 31.1577 17.4216C31.1146 18.8069 31.1594 20.257 31.2919 21.7719C31.3557 22.5005 31.4399 23.2419 31.5445 23.996C31.5784 24.2732 31.5137 24.4721 31.3503 24.5927C31.2891 24.6657 31.2201 24.7055 31.1434 24.7122C31.0763 24.7181 30.9875 24.6969 30.877 24.6486C30.7273 24.594 30.6324 24.5589 30.5924 24.543C30.4644 24.5156 30.3776 24.4073 30.3321 24.218C30.3091 24.0654 30.2856 23.9081 30.2618 23.7459C30.1861 23.2115 30.1226 22.6519 30.0714 22.067C29.9825 21.0507 29.9289 19.7753 29.9106 18.2408C29.8898 15.9046 29.878 14.611 29.8754 14.36C29.8665 14.1483 30.0347 14.0273 30.3798 13.9971C30.5412 13.9636 30.7913 14.0625 31.1304 14.2937C31.4884 14.8517 31.9501 15.7678 32.5157 17.0419C33.057 18.2602 33.5336 19.1798 33.9454 19.8007C33.9776 18.5129 34.0343 16.5661 34.1155 13.9601C34.1275 13.7658 34.2581 13.6578 34.5074 13.636C34.5937 13.6284 34.6956 13.634 34.8132 13.6527C34.97 13.6776 35.0631 13.6936 35.0927 13.7007C35.192 13.7307 35.2602 13.7923 35.2973 13.8857ZM45.5001 21.0795C45.5711 21.2279 45.6116 21.3596 45.6217 21.4746C45.6384 21.6664 45.5716 21.8413 45.4212 21.9994C45.2708 22.1575 45.1664 22.2342 45.1081 22.2297C44.6307 22.1845 44.3003 21.8318 44.117 21.1715C43.919 20.4546 43.7075 19.8596 43.4826 19.3866C43.1591 19.4438 42.8356 19.5011 42.5122 19.5584C42.1424 19.6391 41.8601 19.7797 41.6651 19.9803C41.5856 20.2868 41.4927 20.8263 41.3864 21.5988C41.2847 22.313 41.173 22.859 41.0515 23.2367C40.9899 23.416 40.8311 23.4782 40.5751 23.4233C40.2495 23.3455 40.0691 23.2164 40.034 23.0359C39.9733 22.6741 40.036 22.1759 40.222 21.5413C40.4484 20.8162 40.563 20.3038 40.5658 20.004C40.5678 19.9169 40.4971 19.8265 40.3537 19.7328C40.2102 19.639 40.136 19.5634 40.1309 19.5059C40.1267 19.458 40.1417 19.4083 40.1759 19.357C40.2188 19.2953 40.3157 19.2434 40.4666 19.2012C40.6262 19.1486 40.7127 19.0879 40.726 19.0191C40.8566 18.5246 41.0519 17.609 41.3117 16.2723C41.5291 15.1133 41.736 14.2209 41.9325 13.595C41.9783 13.4557 42.0922 13.3781 42.2744 13.3622C42.4086 13.3505 42.5323 13.3831 42.6453 13.4602C42.9339 13.6668 43.1366 13.9969 43.2536 14.4504C43.3455 14.8385 43.4327 15.2269 43.515 15.6158C44.1923 17.8366 44.8541 19.6579 45.5001 21.0795ZM43.1601 18.5163C43.1003 18.164 43.0032 17.7716 42.8687 17.339C42.7393 16.9638 42.6146 16.5883 42.4948 16.2123C42.2768 17.0333 42.0971 17.8509 41.9558 18.6651C42.1067 18.6229 42.5081 18.5733 43.1601 18.5163ZM52.8626 12.3924C52.8852 12.6513 52.7269 12.8294 52.3876 12.9267C51.9445 13.0524 51.6753 13.1774 51.5799 13.3017C50.605 14.527 50.196 16.0361 50.3529 17.829C50.4267 18.6728 50.6306 19.4568 50.9645 20.1812C51.2387 20.7755 51.4321 21.1643 51.5448 21.3477C51.8256 21.7965 52.1473 22.1065 52.5101 22.2777C52.6598 22.3322 52.8091 22.382 52.9579 22.4269C53.1189 22.4998 53.2061 22.6129 53.2195 22.7663C53.2329 22.9197 53.1923 23.0634 53.0978 23.1972C53.0128 23.3303 52.9115 23.3874 52.794 23.3687C52.6676 23.3605 52.4704 23.3149 52.2023 23.2321C51.7186 23.0039 51.1702 22.477 50.5569 21.6515C50.4034 21.4427 50.2446 21.2296 50.0807 21.0121C49.9255 20.7841 49.8051 20.5676 49.7195 20.3625C49.6582 20.2133 49.5226 19.602 49.3127 18.5287C49.245 18.1965 49.1973 17.8722 49.1697 17.5558C49.0212 15.8587 49.3887 14.3725 50.2722 13.0972C50.7871 12.3566 51.3562 11.959 51.9794 11.9045C52.2478 11.881 52.4995 11.9411 52.7342 12.0848C52.8055 12.1269 52.8483 12.2294 52.8626 12.3924ZM58.0206 17.5495C57.5664 18.8741 56.8321 19.7016 55.8176 20.0319C55.6955 20.0716 55.5721 20.0969 55.4475 20.1078C54.901 20.1556 54.3236 19.9066 53.7155 19.3608C53.3064 18.9908 53.0737 18.4847 53.0175 17.8423C52.9554 17.1328 53.0997 16.3521 53.4502 15.5002C53.6022 15.1391 53.7967 14.8226 54.0338 14.5507C54.305 14.2274 54.5749 14.0541 54.8433 14.0306C54.9967 14.0172 55.1456 14.0621 55.2899 14.1654C55.4342 14.2687 55.8071 14.3907 56.4088 14.5313C56.8824 14.6444 57.231 14.8748 57.4547 15.2223C57.8464 15.8353 58.0625 16.372 58.1027 16.8322C58.1254 17.0911 58.098 17.3302 58.0206 17.5495ZM56.792 16.7585C56.6637 16.0644 56.4402 15.6637 56.1217 15.5563C56.072 15.5413 56.0281 15.5355 55.9897 15.5389C55.8747 15.5489 55.7392 15.6574 55.5834 15.8643C55.411 16.1016 55.2737 16.244 55.1716 16.2916C55.107 16.3262 55.0086 16.3058 54.8764 16.2305C54.7442 16.1551 54.6589 16.119 54.6206 16.1224C54.5918 16.1249 54.5687 16.1366 54.5512 16.1575C54.2408 16.4745 54.112 16.935 54.1648 17.539C54.2009 17.9513 54.3274 18.2928 54.5443 18.5637C54.8472 18.9333 55.0897 19.1102 55.2718 19.0942C55.6937 19.0573 56.0781 18.758 56.4251 18.1963C56.7554 17.665 56.8777 17.1857 56.792 16.7585ZM64.2575 11.352C64.2357 12.6485 64.219 13.9494 64.2076 15.2547C64.1789 16.803 64.2094 18.0901 64.2991 19.116C64.3285 19.4516 64.367 19.7815 64.4147 20.1058C64.4377 20.2584 64.3919 20.3976 64.2773 20.5236C64.1723 20.6487 64.0432 20.718 63.8897 20.7314C63.5925 20.7574 63.3256 20.5779 63.089 20.1928C62.3706 19.048 61.4439 17.2355 60.3091 14.7552C60.2849 14.6994 60.2584 14.6727 60.2297 14.6752C60.1625 14.6811 60.1253 14.752 60.1178 14.8879C60.0748 16.2732 60.1195 17.7233 60.2521 19.2382C60.3158 19.9669 60.4 20.7082 60.5046 21.4623C60.5385 21.7395 60.4738 21.9384 60.3105 22.059C60.2492 22.132 60.1803 22.1718 60.1036 22.1785C60.0364 22.1844 59.9476 22.1632 59.8371 22.1149C59.6874 22.0604 59.5926 22.0252 59.5526 22.0094C59.4246 21.9819 59.3378 21.8736 59.2922 21.6843C59.2692 21.5318 59.2458 21.3744 59.222 21.2122C59.1462 20.6778 59.0828 20.1182 59.0316 19.5334C58.9427 18.517 58.8891 17.2416 58.8708 15.7071C58.8499 13.3709 58.8382 12.0773 58.8356 11.8263C58.8267 11.6146 58.9948 11.4936 59.34 11.4634C59.5013 11.43 59.7515 11.5288 60.0905 11.76C60.4485 12.318 60.9103 13.2341 61.4758 14.5082C62.0172 15.7265 62.4937 16.6461 62.9055 17.267C62.9378 15.9792 62.9945 14.0324 63.0757 11.4264C63.0877 11.2321 63.2183 11.1241 63.4676 11.1023C63.5539 11.0947 63.6558 11.1003 63.7734 11.119C63.9301 11.1439 64.0233 11.1599 64.0529 11.167C64.1521 11.197 64.2203 11.2586 64.2575 11.352ZM71.4111 11.1899C71.0984 11.9225 70.6808 13.2778 70.1582 15.2558C70.0064 15.8391 69.8485 16.7948 69.6845 18.1231C69.5251 19.393 69.3488 20.3601 69.1558 21.0243C69.0779 21.1277 68.9814 21.1844 68.8663 21.1945C68.7321 21.2063 68.5532 21.1494 68.3297 21.0241C67.8778 20.1651 67.3132 18.7363 66.6359 16.7378C65.9959 14.8325 65.3964 13.3923 64.8377 12.4171C64.9414 12.1665 65.0364 12.0374 65.1227 12.0299C65.1952 11.9752 65.2698 11.9445 65.3465 11.9378C65.4999 11.9244 65.7809 12.0447 66.1896 12.2988C66.6036 13.0548 67.0186 13.9895 67.4349 15.1027C67.7705 16.0685 68.1106 17.029 68.455 17.9843C68.7075 16.7836 68.9594 15.578 69.211 14.3677C69.5171 13.0076 69.8488 11.8289 70.2059 10.8316C70.3279 10.5697 70.5701 10.4664 70.9324 10.5217C70.9716 10.5279 71.0229 10.562 71.0863 10.6241C71.1488 10.6766 71.2237 10.7039 71.3108 10.7059C71.3971 10.6984 71.4461 10.7617 71.4578 10.8959C71.4662 10.9918 71.4507 11.0898 71.4111 11.1899ZM76.7232 11.7975C76.3811 11.9724 75.8732 12.1859 75.1997 12.438C74.5261 12.6902 74.0182 12.9037 73.6761 13.0785C73.6116 13.3354 73.5979 13.8969 73.6351 14.7632C73.7935 14.8073 73.9734 14.8205 74.1747 14.8029C74.3186 14.7903 74.5418 14.7466 74.8444 14.6719C75.147 14.5971 75.3702 14.5534 75.514 14.5408C75.7825 14.5173 76.0176 14.5547 76.2195 14.653C76.3705 14.833 76.4485 14.9518 76.4535 15.0093C76.4594 15.0764 76.4305 15.1321 76.3667 15.1763C76.3484 15.1876 76.2871 15.2606 76.183 15.3953C76.1138 15.4883 76.0213 15.535 75.9054 15.5355C75.7082 15.6011 75.3416 15.6621 74.8056 15.7187C74.3558 15.7677 74.0013 15.8567 73.742 15.9856C73.6219 16.7111 73.5799 17.2799 73.616 17.6922C73.6403 17.9703 73.698 18.1874 73.7889 18.3437C74.2672 18.6207 75.0604 18.6865 76.1684 18.5413C76.2451 18.5346 76.3236 18.4939 76.4041 18.4192C76.4836 18.335 76.5522 18.2903 76.6097 18.2853C76.8731 18.2043 77.0681 18.3901 77.1947 18.8428C77.2369 18.9937 77.2203 19.1352 77.1449 19.2674C77.0799 19.4083 76.9712 19.4903 76.8186 19.5133C75.6618 19.6532 74.6471 19.6502 73.7745 19.5043C73.5002 19.4607 73.2427 19.3335 73.002 19.1226C72.7614 18.9118 72.6141 18.6639 72.5602 18.3787C72.4009 17.5521 72.3355 16.8043 72.3639 16.1352C72.0795 15.9765 71.9441 15.8096 71.9578 15.6345C71.9598 15.5474 72.025 15.4644 72.1534 15.3855C72.2905 15.2962 72.3653 15.2124 72.3777 15.134C72.3902 15.0557 72.3887 14.5969 72.3733 13.7577C71.8271 13.6992 71.5458 13.5209 71.5294 13.2229C71.5147 12.944 71.6632 12.7088 71.9749 12.5173C72.2708 12.3658 72.5667 12.2143 72.8626 12.0628C73.211 11.8488 73.6474 11.6464 74.1717 11.4556C74.621 11.2907 75.0756 11.1301 75.5353 10.974C75.5824 10.9602 75.6395 10.9504 75.7066 10.9445C75.9655 10.9218 76.2763 10.9961 76.6391 11.1672C76.652 11.2047 76.6823 11.2746 76.7299 11.3767C76.7775 11.4788 76.8033 11.5538 76.8075 11.6017C76.8143 11.6784 76.7861 11.7437 76.7232 11.7975ZM83.5483 18.5478C83.5805 18.5836 83.5986 18.6255 83.6028 18.6734C83.6221 18.8939 83.4067 19.0819 82.9565 19.2372C82.414 18.8885 81.7283 18.3399 80.8996 17.5912C79.9762 16.7541 79.2928 16.1763 78.8495 15.8576C78.8425 16.1094 78.8469 16.766 78.8624 17.8274C78.8841 18.6273 78.8532 19.2677 78.7696 19.7484C78.7505 19.7501 78.6902 19.7795 78.589 19.8367C78.4973 19.893 78.417 19.9145 78.3483 19.9012C77.918 19.8422 77.6815 19.5683 77.6387 19.0793C77.6261 18.9355 77.6285 18.742 77.6459 18.499C77.6599 18.2176 77.6688 18.0429 77.6725 17.9749C77.6622 17.4155 77.6283 16.7518 77.5708 15.984L77.4336 14.4164C77.3196 13.1124 77.2954 12.0083 77.3612 11.1041C77.4051 10.5012 77.9421 10.1789 78.9722 10.1371C79.4916 10.111 79.9649 10.3304 80.392 10.7954C80.787 11.2246 81.008 11.7077 81.055 12.2446C81.0944 12.6952 80.966 13.1605 80.6699 13.6405C80.4175 14.0684 80.0904 14.4158 79.6887 14.6828C79.5245 14.7938 79.4474 14.9068 79.4575 15.0219C79.4684 15.1465 79.5821 15.2863 79.7985 15.4413C79.9628 15.5525 80.1271 15.6637 80.2915 15.7749C80.3019 15.7837 80.8712 16.2169 81.9993 17.0747C82.7128 17.6113 83.2292 18.1023 83.5483 18.5478ZM79.9488 12.3558C79.9625 12.1807 79.9587 12.0265 79.9373 11.8931C79.891 11.6943 79.7887 11.5197 79.6307 11.3692C79.4822 11.218 79.2545 11.1558 78.9477 11.1826C78.7176 11.2028 78.5801 11.2873 78.5351 11.4361C78.5082 11.68 78.5081 11.9554 78.5349 12.2622C78.5458 12.3868 78.5883 12.7067 78.6624 13.222C78.716 13.6134 78.7441 13.9346 78.7467 14.1855C79.4905 13.5215 79.8912 12.9116 79.9488 12.3558ZM85.1002 9.54298C85.1169 9.73474 84.9926 9.91469 84.7271 10.0828C84.6538 10.1279 84.5727 10.1398 84.4839 10.1186C84.3463 10.092 84.2727 10.0791 84.2631 10.08C84.2056 10.085 84.1506 10.1188 84.0981 10.1813C83.6257 10.7444 83.4222 11.3998 83.4876 12.1477C83.5119 12.4257 83.5777 12.6808 83.685 12.913C83.7325 13.0151 84.1619 13.7263 84.973 15.0465C85.5138 15.9267 85.8122 16.688 85.8684 17.3304C85.9146 17.8577 85.8296 18.3772 85.6135 18.8888C85.5415 19.0593 85.3442 19.2891 85.0217 19.5782C84.7612 19.8039 84.5208 19.9264 84.3002 19.9457C84.214 19.9532 84.1312 19.946 84.052 19.9239C83.7534 19.8244 83.5958 19.6788 83.579 19.4871C83.5689 19.372 83.6287 19.2267 83.7582 19.0511C83.7924 18.9998 83.881 18.9631 84.0239 18.9409C84.1669 18.9187 84.2578 18.8528 84.2965 18.7432C84.4609 18.3037 84.5238 17.8634 84.4853 17.4224C84.4307 16.7992 84.0403 15.9252 83.3139 14.8004C82.5963 13.6652 82.2064 12.7428 82.1443 12.0333C82.0932 11.4485 82.1625 10.9159 82.3523 10.4355C82.5651 9.88554 82.9011 9.47453 83.3603 9.20248C83.5716 9.07772 83.7827 9.00611 83.9937 8.98766C84.3964 8.95243 84.708 9.03626 84.9287 9.23917C85.0338 9.33625 85.0909 9.43752 85.1002 9.54298ZM91.9038 17.0197C91.9748 17.1681 92.0153 17.2998 92.0253 17.4148C92.0421 17.6066 91.9753 17.7815 91.8249 17.9396C91.6745 18.0977 91.5701 18.1744 91.5117 18.1699C91.0344 18.1247 90.704 17.772 90.5206 17.1117C90.3227 16.3948 90.1112 15.7998 89.8863 15.3268C89.5628 15.3841 89.2393 15.4413 88.9158 15.4986C88.5461 15.5793 88.2637 15.7199 88.0688 15.9205C87.9893 16.227 87.8964 16.7665 87.7901 17.539C87.6883 18.2532 87.5767 18.7992 87.4552 19.1769C87.3935 19.3562 87.2348 19.4184 86.9788 19.3635C86.6531 19.2857 86.4728 19.1566 86.4376 18.9761C86.377 18.6143 86.4397 18.1161 86.6257 17.4815C86.8521 16.7564 86.9667 16.244 86.9694 15.9443C86.9715 15.8571 86.9008 15.7667 86.7573 15.673C86.6139 15.5793 86.5396 15.5036 86.5346 15.4461C86.5304 15.3982 86.5454 15.3485 86.5795 15.2972C86.6224 15.2355 86.7193 15.1836 86.8702 15.1414C87.0299 15.0888 87.1163 15.0281 87.1296 14.9593C87.2603 14.4648 87.4555 13.5492 87.7154 12.2126C87.9328 11.0535 88.1397 10.1611 88.3361 9.53522C88.3819 9.39596 88.4959 9.31836 88.6781 9.30242C88.8123 9.29067 88.9359 9.32333 89.0489 9.4004C89.3375 9.60702 89.5403 9.93708 89.6573 10.3906C89.7492 10.7787 89.8363 11.1671 89.9187 11.5561C90.596 13.7768 91.2577 15.5981 91.9038 17.0197ZM89.5638 14.4565C89.504 14.1043 89.4068 13.7118 89.2724 13.2792C89.1429 12.904 89.0183 12.5285 88.8984 12.1525C88.6804 12.9735 88.5008 13.7911 88.3595 14.6053C88.5103 14.5631 88.9118 14.5135 89.5638 14.4565ZM98.9535 8.07013C98.8974 8.42284 98.752 8.63844 98.5173 8.71694C97.9075 8.92487 96.8417 9.221 95.3199 9.60534C95.337 12.0095 95.4152 14.0074 95.5544 15.5989C95.6073 16.203 95.6689 16.7966 95.7392 17.3798C95.7647 17.5611 95.7673 17.701 95.7469 17.7993C95.7124 17.9569 95.6228 18.0372 95.4782 18.0402C95.1993 18.055 94.9587 17.9553 94.7564 17.7411C94.5549 17.5365 94.4324 17.296 94.3889 17.0197C94.3387 16.6666 94.2964 16.2935 94.262 15.9004C94.2067 15.2676 94.1622 14.2619 94.1285 12.8833C94.0999 11.5622 94.0506 10.5569 93.9806 9.86743C93.72 9.8709 93.3626 9.92633 92.9082 10.0337C92.3876 10.1565 92.0266 10.2268 91.8253 10.2444C91.3555 10.2855 90.9611 10.1944 90.642 9.97112C90.5052 9.7319 90.4363 9.6075 90.4355 9.59791C90.4296 9.5308 90.4569 9.45595 90.5173 9.37338C90.8149 9.24107 91.4345 9.09025 92.3761 8.92091C93.2027 8.76164 93.8125 8.55371 94.2055 8.29712C94.5503 8.37323 94.9384 8.39241 95.3699 8.35466C95.8013 8.31692 96.209 8.22811 96.5929 8.08826C96.7071 8.0686 96.9936 7.9759 97.4525 7.81016C97.7902 7.69367 98.0753 7.63974 98.3079 7.64837C98.4805 7.63327 98.5587 7.69889 98.5425 7.84523C98.8014 7.82258 98.9384 7.89754 98.9535 8.07013ZM98.8147 9.77781C98.8582 10.0542 98.893 10.341 98.919 10.6382C98.976 11.2902 98.9949 12.2788 98.9756 13.6041C98.9563 14.9294 98.976 15.9276 99.0347 16.5987C99.0565 16.848 99.0827 17.0921 99.1132 17.3309C99.0504 17.6069 98.8748 17.7527 98.5863 17.7683C98.1724 17.7852 97.9315 17.6275 97.8638 17.2953C97.7961 16.9631 97.7459 16.61 97.7132 16.2361C97.6561 15.5841 97.6477 14.6043 97.6879 13.2965C97.7376 11.9879 97.7344 11.0124 97.6782 10.37C97.6564 10.1207 97.6254 9.87703 97.5853 9.63901C97.6652 9.44846 97.8202 9.34311 98.0503 9.32298C98.2325 9.30704 98.4193 9.34384 98.6107 9.43337C98.6465 9.40125 98.674 9.38435 98.6932 9.38267C98.722 9.38015 98.7405 9.42683 98.7489 9.52271C98.7494 9.63861 98.7553 9.70572 98.7665 9.72406C98.7786 9.75198 98.7947 9.7699 98.8147 9.77781ZM104.874 13.4504C104.42 14.775 103.685 15.6025 102.671 15.9328C102.549 15.9725 102.425 15.9978 102.301 16.0087C101.754 16.0565 101.177 15.8075 100.569 15.2617C100.159 14.8917 99.9268 14.3855 99.8706 13.7431C99.8085 13.0336 99.9528 12.253 100.303 11.4011C100.455 11.04 100.65 10.7235 100.887 10.4515C101.158 10.1283 101.428 9.95495 101.696 9.93147C101.85 9.91804 101.999 9.96299 102.143 10.0663C102.287 10.1696 102.66 10.2916 103.262 10.4321C103.736 10.5453 104.084 10.7756 104.308 11.1232C104.7 11.7362 104.916 12.2729 104.956 12.7331C104.978 12.9919 104.951 13.231 104.874 13.4504ZM103.645 12.6593C103.517 11.9653 103.293 11.5646 102.975 11.4572C102.925 11.4422 102.881 11.4364 102.843 11.4398C102.728 11.4498 102.592 11.5583 102.437 11.7651C102.264 12.0024 102.127 12.1449 102.025 12.1925C101.96 12.2271 101.862 12.2067 101.729 12.1313C101.597 12.0559 101.512 12.0199 101.474 12.0233C101.445 12.0258 101.422 12.0375 101.404 12.0583C101.094 12.3753 100.965 12.8359 101.018 13.4399C101.054 13.8522 101.18 14.1937 101.397 14.4646C101.7 14.8342 101.943 15.011 102.125 14.9951C102.547 14.9582 102.931 14.6589 103.278 14.0972C103.608 13.5659 103.731 13.0866 103.645 12.6593ZM111.111 7.25288C111.089 8.54939 111.072 9.85028 111.061 11.1555C111.032 12.7039 111.062 13.991 111.152 15.0169C111.182 15.3524 111.22 15.6824 111.268 16.0067C111.291 16.1593 111.245 16.2985 111.13 16.4245C111.025 16.5496 110.896 16.6189 110.743 16.6323C110.446 16.6583 110.179 16.4788 109.942 16.0937C109.224 14.9489 108.297 13.1364 107.162 10.6561C107.138 10.6002 107.112 10.5736 107.083 10.5761C107.016 10.582 106.978 10.6529 106.971 10.7888C106.928 12.1741 106.973 13.6242 107.105 15.1391C107.169 15.8677 107.253 16.6091 107.358 17.3632C107.392 17.6404 107.327 17.8393 107.164 17.9599C107.102 18.0329 107.033 18.0727 106.957 18.0794C106.89 18.0853 106.801 18.0641 106.69 18.0158C106.541 17.9612 106.446 17.9261 106.406 17.9102C106.278 17.8828 106.191 17.7745 106.145 17.5852C106.122 17.4326 106.099 17.2753 106.075 17.1131C105.999 16.5787 105.936 16.0191 105.885 15.4342C105.796 14.4179 105.742 13.1425 105.724 11.608C105.703 9.27177 105.691 7.97819 105.689 7.72723C105.68 7.51546 105.848 7.39448 106.193 7.36428C106.354 7.33084 106.605 7.42972 106.944 7.66091C107.302 8.21893 107.763 9.13499 108.329 10.4091C108.87 11.6274 109.347 12.547 109.759 13.1679C109.791 11.8801 109.848 9.93326 109.929 7.32729C109.941 7.13301 110.071 7.02497 110.321 7.00316C110.407 6.99561 110.509 7.00119 110.626 7.01989C110.783 7.04482 110.876 7.06082 110.906 7.06789C111.005 7.09785 111.073 7.15951 111.111 7.25288ZM122.661 5.99599C122.605 6.3487 122.459 6.56431 122.225 6.64281C121.615 6.85074 120.549 7.14687 119.027 7.5312C119.044 9.93535 119.123 11.9332 119.262 13.5248C119.315 14.1288 119.376 14.7224 119.447 15.3056C119.472 15.487 119.475 15.6268 119.454 15.7252C119.42 15.8828 119.33 15.9631 119.186 15.9661C118.907 15.9808 118.666 15.8811 118.464 15.667C118.262 15.4624 118.14 15.2219 118.096 14.9455C118.046 14.5925 118.004 14.2194 117.969 13.8263C117.914 13.1935 117.87 12.1878 117.836 10.8092C117.807 9.48807 117.758 8.48278 117.688 7.7933C117.427 7.79677 117.07 7.85219 116.616 7.95957C116.095 8.08241 115.734 8.15264 115.533 8.17025C115.063 8.21136 114.669 8.12027 114.349 7.89699C114.213 7.65777 114.144 7.53337 114.143 7.52378C114.137 7.45666 114.164 7.38182 114.225 7.29924C114.522 7.16693 115.142 7.01611 116.084 6.84678C116.91 6.68751 117.52 6.47958 117.913 6.22299C118.258 6.2991 118.646 6.31828 119.077 6.28053C119.509 6.24278 119.916 6.15398 120.3 6.01412C120.415 5.99447 120.701 5.90177 121.16 5.73602C121.498 5.61954 121.783 5.56561 122.015 5.57424C122.188 5.55914 122.266 5.62476 122.25 5.77109C122.509 5.74844 122.646 5.82341 122.661 5.99599ZM126.137 11.59C125.683 12.9147 124.949 13.7422 123.934 14.0725C123.812 14.1121 123.689 14.1374 123.564 14.1483C123.018 14.1961 122.44 13.9472 121.832 13.4014C121.423 13.0314 121.19 12.5252 121.134 11.8828C121.072 11.1733 121.216 10.3926 121.567 9.54076C121.719 9.17966 121.914 8.86314 122.151 8.59121C122.422 8.26798 122.692 8.09462 122.96 8.07114C123.113 8.05771 123.262 8.10266 123.407 8.20597C123.551 8.30928 123.924 8.43123 124.526 8.57182C124.999 8.68496 125.348 8.91531 125.571 9.26287C125.963 9.8759 126.179 10.4125 126.219 10.8727C126.242 11.1316 126.215 11.3707 126.137 11.59ZM124.909 10.799C124.78 10.105 124.557 9.70426 124.238 9.59687C124.189 9.58189 124.145 9.57608 124.106 9.57944C123.991 9.5895 123.856 9.69796 123.7 9.90482C123.528 10.1421 123.39 10.2846 123.288 10.3321C123.224 10.3668 123.125 10.3464 122.993 10.271C122.861 10.1956 122.776 10.1596 122.737 10.163C122.709 10.1655 122.685 10.1772 122.668 10.198C122.358 10.515 122.229 10.9755 122.282 11.5796C122.318 11.9918 122.444 12.3334 122.661 12.6043C122.964 12.9739 123.206 13.1507 123.389 13.1348C123.81 13.0979 124.195 12.7986 124.542 12.2368C124.872 11.7055 124.994 11.2263 124.909 10.799ZM135.512 10.2772C135.309 10.9422 135.21 11.7479 135.216 12.6942C135.239 13.5134 135.267 14.3321 135.3 15.1504C135.302 15.3918 135.154 15.5255 134.857 15.5515C134.771 15.559 134.688 15.5518 134.609 15.5297C134.182 15.3932 133.947 15.0901 133.906 14.6203C133.894 14.486 133.896 14.283 133.911 14.0112C133.925 13.7298 133.926 13.5268 133.916 13.4021C133.93 13.1207 133.941 12.6995 133.95 12.1383C133.343 12.8194 132.636 13.3499 131.828 13.7296C131.717 13.7781 131.603 13.8073 131.488 13.8174C131.047 13.856 130.618 13.6423 130.2 13.1765C129.965 12.9169 129.829 12.5809 129.793 12.1687C129.762 11.8043 129.806 11.3705 129.926 10.8673C130.298 9.2696 130.975 7.67905 131.958 6.09563C132.449 5.30871 132.911 4.89638 133.342 4.85863C133.726 4.82508 133.954 4.95002 134.027 5.23346C134.086 5.46981 134.02 5.64952 133.828 5.7726C133.508 5.98413 133.34 6.10032 133.322 6.12117C132.595 7.0833 131.957 8.29843 131.409 9.76656C131.073 10.6751 130.935 11.4746 130.996 12.1649C131.007 12.2895 131.022 12.4138 131.043 12.5376C131.063 12.5455 131.096 12.5909 131.142 12.6738C131.187 12.7472 131.242 12.7665 131.306 12.7319C131.917 12.4273 132.814 11.687 133.996 10.5112C134.085 10.4261 134.176 10.196 134.269 9.82071C134.341 9.54386 134.502 9.39453 134.751 9.37272C134.675 9.37943 134.751 9.36313 134.979 9.32383C135.092 9.29458 135.171 9.30705 135.214 9.36122C135.42 9.61374 135.53 9.8263 135.545 9.99888C135.553 10.0852 135.542 10.1779 135.512 10.2772ZM141.104 6.16492C140.762 6.33977 140.254 6.55327 139.581 6.80543C138.907 7.05758 138.399 7.27108 138.057 7.44594C137.992 7.70277 137.979 8.26432 138.016 9.13058C138.174 9.17469 138.354 9.18793 138.556 9.17032C138.699 9.15773 138.923 9.11405 139.225 9.03927C139.528 8.96449 139.751 8.92081 139.895 8.90822C140.163 8.88474 140.399 8.92213 140.6 9.02041C140.751 9.20042 140.829 9.31919 140.834 9.37672C140.84 9.44383 140.811 9.4995 140.748 9.54373C140.729 9.55499 140.668 9.62798 140.564 9.76269C140.495 9.85569 140.402 9.90243 140.286 9.90291C140.089 9.96846 139.723 10.0295 139.186 10.0861C138.737 10.1351 138.382 10.2241 138.123 10.353C138.003 11.0785 137.961 11.6473 137.997 12.0596C138.021 12.3377 138.079 12.5548 138.17 12.7111C138.648 12.9881 139.441 13.0539 140.549 12.9087C140.626 12.902 140.705 12.8613 140.785 12.7866C140.865 12.7024 140.933 12.6577 140.991 12.6527C141.254 12.5717 141.449 12.7575 141.576 13.2102C141.618 13.3611 141.601 13.5026 141.526 13.6348C141.461 13.7757 141.352 13.8577 141.199 13.8807C140.043 14.0206 139.028 14.0176 138.155 13.8717C137.881 13.8281 137.624 13.7009 137.383 13.49C137.142 13.2792 136.995 13.0313 136.941 12.7461C136.782 11.9195 136.716 11.1717 136.745 10.5026C136.46 10.3439 136.325 10.177 136.339 10.0019C136.341 9.91479 136.406 9.83179 136.534 9.75293C136.671 9.66365 136.746 9.57982 136.759 9.50144C136.771 9.42305 136.77 8.96428 136.754 8.1251C136.208 8.06661 135.927 7.88833 135.91 7.59027C135.896 7.31138 136.044 7.07618 136.356 6.88467C136.652 6.73319 136.948 6.5817 137.244 6.43022C137.592 6.21617 138.028 6.01375 138.553 5.82296C139.002 5.65806 139.456 5.49753 139.916 5.34137C139.963 5.32759 140.02 5.31776 140.088 5.31189C140.346 5.28924 140.657 5.36349 141.02 5.53464C141.033 5.57215 141.063 5.64196 141.111 5.74407C141.158 5.84618 141.184 5.92121 141.188 5.96915C141.195 6.04585 141.167 6.11111 141.104 6.16492ZM148.517 3.73386C148.461 4.08657 148.316 4.30218 148.081 4.38067C147.471 4.5886 146.405 4.88474 144.884 5.26907C144.901 7.67322 144.979 9.67109 145.118 11.2627C145.171 11.8667 145.233 12.4603 145.303 13.0435C145.328 13.2248 145.331 13.3647 145.311 13.4631C145.276 13.6207 145.187 13.701 145.042 13.704C144.763 13.7187 144.522 13.619 144.32 13.4048C144.119 13.2002 143.996 12.9598 143.953 12.6834C143.902 12.3303 143.86 11.9572 143.826 11.5641C143.77 10.9313 143.726 9.92563 143.692 8.54702C143.664 7.22594 143.614 6.22065 143.544 5.53116C143.284 5.53464 142.926 5.59006 142.472 5.69744C141.951 5.82028 141.59 5.89051 141.389 5.90812C140.919 5.94922 140.525 5.85814 140.206 5.63485C140.069 5.39564 140 5.27123 139.999 5.26165C139.993 5.19453 140.021 5.11969 140.081 5.03711C140.379 4.9048 140.998 4.75398 141.94 4.58465C142.766 4.42538 143.376 4.21745 143.769 3.96086C144.114 4.03697 144.502 4.05615 144.934 4.0184C145.365 3.98065 145.773 3.89185 146.157 3.75199C146.271 3.73234 146.557 3.63964 147.016 3.47389C147.354 3.3574 147.639 3.30348 147.872 3.31211C148.044 3.29701 148.122 3.36263 148.106 3.50896C148.365 3.48631 148.502 3.56128 148.517 3.73386ZM153.273 3.57862C153.29 3.77038 153.166 3.95033 152.9 4.11847C152.827 4.16354 152.746 4.17546 152.657 4.15425C152.519 4.12764 152.446 4.11475 152.436 4.11559C152.379 4.12063 152.324 4.15442 152.271 4.21698C151.799 4.78002 151.595 5.43547 151.661 6.18332C151.685 6.46137 151.751 6.71646 151.858 6.94861C151.906 7.05072 152.335 7.76191 153.146 9.08216C153.687 9.96233 153.985 10.7236 154.041 11.366C154.088 11.8933 154.003 12.4128 153.786 12.9244C153.714 13.095 153.517 13.3248 153.195 13.6139C152.934 13.8395 152.694 13.962 152.473 13.9813C152.387 13.9888 152.304 13.9816 152.225 13.9595C151.926 13.8601 151.769 13.7144 151.752 13.5227C151.742 13.4076 151.802 13.2623 151.931 13.0867C151.965 13.0355 152.054 12.9987 152.197 12.9765C152.34 12.9544 152.431 12.8885 152.469 12.7788C152.634 12.3393 152.697 11.8991 152.658 11.458C152.604 10.8348 152.213 9.96081 151.487 8.83603C150.769 7.70082 150.379 6.77847 150.317 6.06897C150.266 5.48411 150.335 4.95151 150.525 4.47116C150.738 3.92118 151.074 3.51016 151.533 3.23811C151.745 3.11336 151.956 3.04175 152.167 3.02329C152.569 2.98806 152.881 3.0719 153.102 3.27481C153.207 3.37188 153.264 3.47316 153.273 3.57862ZM161.424 2.60464C161.368 2.95735 161.223 3.17295 160.988 3.25145C160.378 3.45938 159.313 3.75551 157.791 4.13985C157.808 6.544 157.886 8.54186 158.025 10.1334C158.078 10.7375 158.14 11.3311 158.21 11.9143C158.236 12.0956 158.238 12.2355 158.218 12.3339C158.183 12.4915 158.094 12.5718 157.949 12.5747C157.67 12.5895 157.43 12.4898 157.227 12.2756C157.026 12.071 156.903 11.8305 156.86 11.5542C156.81 11.2011 156.767 10.828 156.733 10.4349C156.678 9.80211 156.633 8.79641 156.599 7.4178C156.571 6.09671 156.521 5.09143 156.451 4.40194C156.191 4.40541 155.833 4.46084 155.379 4.56822C154.858 4.69106 154.497 4.76128 154.296 4.7789C153.826 4.82 153.432 4.72891 153.113 4.50563C152.976 4.26641 152.907 4.14201 152.906 4.13242C152.9 4.06531 152.928 3.99046 152.988 3.90789C153.286 3.77558 153.905 3.62476 154.847 3.45542C155.674 3.29615 156.283 3.08822 156.676 2.83163C157.021 2.90774 157.409 2.92692 157.841 2.88918C158.272 2.85143 158.68 2.76263 159.064 2.62277C159.178 2.60311 159.464 2.51041 159.923 2.34467C160.261 2.22818 160.546 2.17425 160.779 2.18288C160.951 2.16779 161.03 2.2334 161.013 2.37974C161.272 2.35709 161.409 2.43206 161.424 2.60464ZM165.4 10.5896C165.471 10.738 165.511 10.8697 165.521 10.9848C165.538 11.1765 165.471 11.3515 165.321 11.5095C165.17 11.6676 165.066 11.7444 165.008 11.7398C164.53 11.6946 164.2 11.3419 164.017 10.6817C163.819 9.96474 163.607 9.36975 163.382 8.89671C163.059 8.95399 162.735 9.01128 162.412 9.06856C162.042 9.14921 161.76 9.28985 161.565 9.49048C161.485 9.79693 161.392 10.3364 161.286 11.109C161.184 11.8231 161.073 12.3691 160.951 12.7469C160.889 12.9261 160.731 12.9883 160.475 12.9335C160.149 12.8557 159.969 12.7265 159.934 12.546C159.873 12.1842 159.936 11.686 160.122 11.0514C160.348 10.3263 160.463 9.81393 160.465 9.51419C160.467 9.42706 160.397 9.33664 160.253 9.24291C160.11 9.14919 160.036 9.07357 160.03 9.01604C160.026 8.9681 160.041 8.91848 160.075 8.86719C160.118 8.80547 160.215 8.75352 160.366 8.71133C160.526 8.65872 160.612 8.59802 160.626 8.52922C160.756 8.03473 160.951 7.11916 161.211 5.7825C161.429 4.62345 161.636 3.731 161.832 3.10516C161.878 2.9659 161.992 2.8883 162.174 2.87236C162.308 2.86062 162.432 2.89327 162.545 2.97034C162.833 3.17696 163.036 3.50702 163.153 3.96053C163.245 4.3486 163.332 4.73709 163.415 5.12599C164.092 7.34678 164.754 9.168 165.4 10.5896ZM163.06 8.02643C163 7.6742 162.903 7.28175 162.768 6.8491C162.639 6.47397 162.514 6.09843 162.394 5.72247C162.176 6.54342 161.997 7.36102 161.855 8.17527C162.006 8.13308 162.408 8.08347 163.06 8.02643ZM171.861 10.8214C171.894 10.8572 171.912 10.8991 171.916 10.947C171.935 11.1676 171.72 11.3555 171.27 11.5108C170.727 11.1621 170.041 10.6135 169.213 9.86478C168.289 9.02775 167.606 8.44989 167.163 8.13121C167.156 8.38301 167.16 9.0396 167.175 10.101C167.197 10.901 167.166 11.5413 167.083 12.022C167.064 12.0237 167.003 12.0531 166.902 12.1103C166.81 12.1666 166.73 12.1881 166.661 12.1748C166.231 12.1158 165.995 11.8419 165.952 11.3529C165.939 11.2091 165.942 11.0156 165.959 10.7726C165.973 10.4912 165.982 10.3165 165.986 10.2486C165.975 9.6891 165.941 9.02544 165.884 8.25758L165.747 6.68996C165.633 5.38602 165.608 4.28192 165.674 3.37767C165.718 2.77483 166.255 2.45251 167.285 2.41069C167.805 2.38457 168.278 2.60402 168.705 3.06903C169.1 3.49821 169.321 3.98126 169.368 4.51818C169.407 4.96881 169.279 5.43412 168.983 5.91411C168.731 6.34196 168.403 6.68939 168.002 6.95641C167.838 7.06739 167.76 7.1804 167.771 7.29546C167.781 7.4201 167.895 7.5599 168.112 7.71487C168.276 7.82609 168.44 7.93731 168.605 8.04853C168.615 8.05728 169.184 8.49054 170.312 9.3483C171.026 9.88487 171.542 10.3759 171.861 10.8214ZM168.262 4.62945C168.276 4.45435 168.272 4.3001 168.25 4.16671C168.204 3.96789 168.102 3.79327 167.944 3.64285C167.795 3.4916 167.568 3.4294 167.261 3.45624C167.031 3.47638 166.893 3.56087 166.848 3.70972C166.821 3.95361 166.821 4.22896 166.848 4.53577C166.859 4.66041 166.901 4.98035 166.975 5.49557C167.029 5.887 167.057 6.20819 167.06 6.45915C167.804 5.79508 168.204 5.18518 168.262 4.62945ZM177.576 1.19157C177.52 1.54429 177.374 1.75989 177.14 1.83839C176.53 2.04632 175.464 2.34245 173.942 2.72679C173.959 5.13094 174.037 7.1288 174.177 8.72038C174.229 9.32442 174.291 9.91803 174.361 10.5012C174.387 10.6825 174.39 10.8224 174.369 10.9208C174.335 11.0784 174.245 11.1587 174.1 11.1617C173.821 11.1764 173.581 11.0767 173.379 10.8625C173.177 10.658 173.055 10.4175 173.011 10.1411C172.961 9.78804 172.919 9.41495 172.884 9.02185C172.829 8.38905 172.784 7.38334 172.751 6.00473C172.722 4.68365 172.673 3.67836 172.603 2.98888C172.342 2.99235 171.985 3.04778 171.53 3.15515C171.01 3.27799 170.649 3.34822 170.447 3.36584C169.978 3.40694 169.583 3.31585 169.264 3.09257C169.127 2.85335 169.059 2.72895 169.058 2.71936C169.052 2.65224 169.079 2.5774 169.139 2.49483C169.437 2.36252 170.057 2.2117 170.998 2.04236C171.825 1.88309 172.435 1.67516 172.828 1.41857C173.173 1.49468 173.561 1.51386 173.992 1.47611C174.424 1.43837 174.831 1.34956 175.215 1.2097C175.329 1.19005 175.616 1.09735 176.075 0.931607C176.412 0.815118 176.697 0.76119 176.93 0.769822C177.103 0.754723 177.181 0.820341 177.165 0.966675C177.424 0.944026 177.561 1.01899 177.576 1.19157ZM180.752 2.69615C180.41 2.87101 179.902 3.08451 179.229 3.33666C178.555 3.58881 178.047 3.80232 177.705 3.97717C177.641 4.23401 177.627 4.79555 177.664 5.66181C177.823 5.70592 178.002 5.71917 178.204 5.70155C178.348 5.68897 178.571 5.64529 178.873 5.5705C179.176 5.49572 179.399 5.45204 179.543 5.43946C179.812 5.41597 180.047 5.45337 180.249 5.55164C180.4 5.73166 180.478 5.85043 180.483 5.90795C180.488 5.97507 180.46 6.03074 180.396 6.07496C180.377 6.08623 180.316 6.15921 180.212 6.29392C180.143 6.38692 180.05 6.43366 179.934 6.43414C179.737 6.49969 179.371 6.56075 178.835 6.61732C178.385 6.66633 178.03 6.75531 177.771 6.88426C177.651 7.6097 177.609 8.17856 177.645 8.59084C177.669 8.86889 177.727 9.08605 177.818 9.24233C178.296 9.51931 179.089 9.58517 180.197 9.43993C180.274 9.43322 180.353 9.39253 180.433 9.31787C180.513 9.23362 180.581 9.18897 180.639 9.18394C180.902 9.10293 181.097 9.28875 181.224 9.74142C181.266 9.89231 181.249 10.0338 181.174 10.166C181.109 10.307 181 10.389 180.848 10.412C179.691 10.5518 178.676 10.5488 177.804 10.4029C177.529 10.3593 177.272 10.2321 177.031 10.0213C176.79 9.81046 176.643 9.56249 176.589 9.27738C176.43 8.45078 176.365 7.70293 176.393 7.03382C176.109 6.87514 175.973 6.70825 175.987 6.53315C175.989 6.44602 176.054 6.36303 176.182 6.28417C176.32 6.19488 176.394 6.11105 176.407 6.03267C176.419 5.95429 176.418 5.49551 176.402 4.65634C175.856 4.59784 175.575 4.41957 175.558 4.1215C175.544 3.84262 175.692 3.60742 176.004 3.4159C176.3 3.26442 176.596 3.11294 176.892 2.96145C177.24 2.74741 177.676 2.54499 178.201 2.3542C178.65 2.18929 179.105 2.02876 179.564 1.8726C179.611 1.85882 179.669 1.84899 179.736 1.84312C179.995 1.82047 180.305 1.89472 180.668 2.06587C180.681 2.10338 180.711 2.17319 180.759 2.27531C180.807 2.37742 180.832 2.45244 180.837 2.50038C180.843 2.57708 180.815 2.64234 180.752 2.69615ZM185.593 6.31583C185.517 6.54474 185.445 6.77323 185.378 7.0013C185.286 7.27024 185.179 7.48728 185.058 7.65243C184.794 8.05236 184.529 8.44749 184.263 8.83783C183.947 9.30991 183.653 9.64482 183.38 9.84257C183.295 9.96601 183.2 10.0951 183.096 10.2298C182.991 10.3645 182.882 10.4369 182.767 10.447C182.709 10.452 182.641 10.4435 182.562 10.4214C182.482 10.3994 182.393 10.3734 182.294 10.3434C182.204 10.3126 182.136 10.2557 182.091 10.1728C182.027 9.77262 181.974 9.34243 181.934 8.88221C181.893 8.41241 181.851 7.71082 181.808 6.77744C181.765 5.84406 181.723 5.14247 181.682 4.67267C181.627 4.04946 181.553 3.48108 181.46 2.96753C181.45 2.95878 181.335 2.85775 181.115 2.66443C180.979 2.55069 180.907 2.44109 180.898 2.33563C180.894 2.28769 180.899 2.23891 180.914 2.18929C180.952 2.07004 181.051 1.9937 181.213 1.96027C181.336 1.93019 181.459 1.9049 181.583 1.88441C182.403 1.98653 183.286 2.36334 184.232 3.01484C184.479 3.18647 184.684 3.37145 184.846 3.5698C185.366 4.21028 185.652 4.82774 185.704 5.42218C185.731 5.729 185.694 6.02688 185.593 6.31583ZM184.423 4.86757C184.284 4.27109 183.725 3.78384 182.745 3.40583C182.818 5.01287 182.947 6.7116 183.133 8.50201C184.121 7.32379 184.573 6.24571 184.487 5.26775C184.476 5.13352 184.454 5.00013 184.423 4.86757Z" fill="#0067FF"/>
</svg>
