<svg width="229" height="177" viewBox="0 0 229 177" fill="none" xmlns="http://www.w3.org/2000/svg">
<path fill-rule="evenodd" clip-rule="evenodd" d="M75.7118 98.8916V107.817C75.7118 107.817 75.7118 112.706 71.7891 113.747C67.8663 114.787 62.7996 116.557 62.7996 116.557L88.8808 124.878L94.9095 121.35C94.9095 121.35 100.335 118.7 100.335 115.203C100.335 111.706 100.335 105.052 100.335 105.052L75.7118 98.8916Z" fill="#D3DCED"/>
<path fill-rule="evenodd" clip-rule="evenodd" d="M63.5215 115.846L89.1558 124.619L97.1867 119.571C97.1867 119.571 100.414 117.133 100.414 114.418C100.414 111.704 100.414 103.715 100.414 103.715L101.779 103.223V113.921C101.779 113.921 101.57 118.959 97.9207 120.767L89.1558 126.321L63.5215 117.209V115.846Z" fill="#BEC9DD"/>
<ellipse cx="113.328" cy="139.675" rx="22.3769" ry="5.41376" fill="#F0F7FC"/>
<ellipse cx="21.6551" cy="111.884" rx="18.0459" ry="4.33101" fill="#F0F7FC"/>
<path fill-rule="evenodd" clip-rule="evenodd" d="M177.786 121.765L216.919 136.186C223.57 138.718 228.1 135.855 228.1 132.265C228.1 67.2121 228.1 35.6645 228.1 30.692C227.741 23.741 228.532 20.2119 218.04 20.2119C218.04 20.2119 184.085 20.6914 179.385 20.6355C174.684 20.5797 174.684 25.429 174.684 25.429C174.684 25.429 174.684 112.953 174.684 115.819C174.684 118.685 174.684 120.666 177.786 121.765Z" fill="#D3DCED"/>
<path fill-rule="evenodd" clip-rule="evenodd" d="M174.177 120.661C174.177 120.661 202.67 130.902 216.802 136.305C223.906 139.022 224.489 134.481 224.489 132.459C224.489 67.415 224.489 32.1903 224.489 27.2183C224.544 20.9936 223.446 19.5451 217.358 19.4893C217.358 19.4893 180.475 19.6009 175.775 19.5451C171.075 19.4893 171.075 24.3379 171.075 24.3379C171.075 24.3379 171.075 111.85 171.075 114.716C171.075 117.582 171.075 119.562 174.177 120.661Z" fill="#F0F7FC"/>
<path fill-rule="evenodd" clip-rule="evenodd" d="M172.523 63.7741C172.521 62.5017 173.651 61.5254 174.91 61.7131L219.831 68.4142C220.849 68.5662 221.603 69.441 221.603 70.471V129.909C221.603 131.335 220.2 132.338 218.851 131.877L174.031 116.548C173.191 116.261 172.626 115.472 172.624 114.585L172.523 63.7741Z" fill="white"/>
<path fill-rule="evenodd" clip-rule="evenodd" d="M172.519 28.1054C172.519 26.9416 173.474 26.0043 174.637 26.0263L219.563 26.8733C220.696 26.8947 221.603 27.8192 221.603 28.9525V62.5657C221.603 63.8319 220.481 64.8042 219.228 64.6241L174.302 58.1686C173.279 58.0215 172.519 57.1445 172.519 56.1102V28.1054Z" fill="white"/>
<path fill-rule="evenodd" clip-rule="evenodd" d="M146.458 0C146.458 0 40.67 14.9625 35.3391 15.6572C30.0081 16.352 30.3361 22.3143 30.3361 22.3143C30.3361 22.3143 30.3361 70.7264 30.3361 72.6992C30.3361 74.6721 31.5731 75.136 32.9844 75.6787C32.9844 75.6787 141.595 126.119 145.961 127.641C147.041 128.017 148.422 127.684 149.95 124.557C151.477 121.43 155.195 99.9345 155.195 60.6993C155.195 60.6993 154.981 98.3101 154.981 58.1102C154.981 17.9103 151.261 0.443757 146.458 0Z" fill="#A6B6CC"/>
<path fill-rule="evenodd" clip-rule="evenodd" d="M143.657 0.748263C132.009 1.99148 36.4802 14.6162 31.0766 15.3095C25.6729 16.0028 26.0053 21.9532 26.0053 21.9532C26.0053 21.9532 26.0053 89.4468 26.0053 91.4157C26.0053 93.3846 27.2593 93.8476 28.6898 94.3893C28.6898 94.3893 141.739 126.79 146.165 128.309C148.283 129.035 150.142 127.55 150.142 123.516C150.142 123.516 150.142 12.6434 150.142 7.56576C150.142 2.48816 146.349 0.460905 143.657 0.748263Z" fill="#F0F7FC"/>
<path fill-rule="evenodd" clip-rule="evenodd" d="M145.622 0.0986575C133.976 1.32009 33.3411 14.1702 29.5321 14.6174C25.723 15.0645 26.0056 20.2114 26.0056 20.2114L150.142 6.85677C150.142 5.16101 150.142 4.21696 150.142 3.74719C150.142 -0.103772 148.314 -0.183665 145.622 0.0986575Z" fill="#D3DCED"/>
<circle cx="31.0389" cy="18.0461" r="0.721835" fill="white"/>
<circle cx="35.37" cy="16.6017" r="0.721835" fill="white"/>
<circle cx="38.2572" cy="16.6017" r="0.721835" fill="white"/>
<path fill-rule="evenodd" clip-rule="evenodd" d="M132.818 59.1544C132.818 59.1544 132.818 111.967 132.818 114.626C132.818 117.285 131.334 118.904 129.108 118.228C126.882 117.553 40.6544 93.354 39.1372 92.7507C37.6201 92.1474 37.4886 91.6575 37.5544 89.702C37.6201 87.7464 37.4886 53.5103 37.5544 52.4355C37.6201 51.3608 38.0739 51.1004 39.6301 51.3256C41.1864 51.5508 128.228 56.1413 130.389 56.5544C132.55 56.9675 132.818 57.7622 132.818 59.1544Z" fill="white"/>
<path opacity="0.1" fill-rule="evenodd" clip-rule="evenodd" d="M109.674 45.5276C109.674 45.5276 103.64 71.7737 103.052 74.3377C102.464 76.9017 100.761 77.8782 98.7497 76.7246C96.7381 75.571 35.8448 48.2543 34.5054 47.3302C33.166 46.4061 33.1467 45.904 33.6431 44.0329C34.1394 42.1619 37.6728 26.1694 37.9744 25.1477C38.2759 24.1261 38.774 23.9774 40.235 24.5457C41.6961 25.1139 105.884 41.5863 107.891 42.4723C109.898 43.3582 109.982 44.185 109.674 45.5276Z" fill="#3F6BA7"/>
<path fill-rule="evenodd" clip-rule="evenodd" d="M105.588 38.0125C105.588 38.0125 100.467 64.4546 99.9685 67.0377C99.4697 69.6208 97.8019 70.6565 95.7516 69.5743C93.7012 68.4921 31.8979 43.3312 30.5273 42.4547C29.1567 41.5782 29.12 41.0771 29.5512 39.1898C29.9823 37.3025 32.9591 21.1955 33.2251 20.1639C33.491 19.1323 33.9837 18.9663 35.4635 19.4828C36.9433 19.9994 101.664 34.2068 103.7 35.0217C105.736 35.8366 105.849 36.6599 105.588 38.0125Z" fill="white"/>
<path fill-rule="evenodd" clip-rule="evenodd" d="M128.914 87.1866C128.49 88.4676 129.459 87.4757 129.099 88.5104C128.845 89.2419 129.248 90.4841 128.914 92.791C128.833 93.3531 127.967 94.8946 127.967 94.8946C127.967 94.8946 126.161 101.135 124.865 103.911C123.57 106.687 120.359 111.258 120.753 114.076C121.146 116.893 121.111 117.593 121.785 123.653C122.459 129.713 122.077 133.521 123.233 136.371L119.706 137.073C119.462 135.322 113.951 118.106 113.338 113.714C112.725 109.321 116.694 96.9193 115.895 97.8395C112.913 101.275 110.621 104.867 109.778 106.342C108.175 109.148 108.302 110.885 108.735 113.988C109.168 117.091 108.22 123.044 108.22 123.044C108.22 123.044 107.573 131.584 107.866 133.685L104.966 134.095C104.966 134.095 101.544 111.305 101.805 107.471C102.066 103.636 110.607 86.4249 110.607 86.4249C110.607 86.4249 130.391 82.7312 128.914 87.1866Z" fill="#DBE3F3"/>
<path fill-rule="evenodd" clip-rule="evenodd" d="M115.895 97.8397C112.913 101.275 110.621 104.867 109.778 106.343C108.175 109.148 108.302 110.886 108.735 113.988C109.168 117.091 108.22 123.044 108.22 123.044C108.22 123.044 107.573 131.584 107.866 133.685C107.866 133.685 106.787 133.838 106.247 133.914C105.82 133.975 106.431 121.254 106.495 116.986C106.562 112.475 105.272 109.574 105.362 108.26C105.577 105.104 111.964 94.9089 115.086 91.2674C115.757 90.4845 116.157 92.0801 116.446 91.7937C117.424 90.8268 116.104 89.792 115.672 91.7937C115.381 93.1424 116.103 97.5999 115.895 97.8397Z" fill="#BEC9DD"/>
<path fill-rule="evenodd" clip-rule="evenodd" d="M128.914 87.1866C128.49 88.4676 129.459 87.4757 129.099 88.5104C128.845 89.2419 129.248 90.4841 128.914 92.791C128.833 93.3531 127.967 94.8946 127.967 94.8946C127.967 94.8946 126.161 101.135 124.866 103.911C123.57 106.687 120.359 111.258 120.753 114.076C121.146 116.893 121.111 117.593 121.785 123.653C122.46 129.713 122.077 133.521 123.233 136.371C123.233 136.371 121.676 136.681 120.898 136.836C120.763 136.863 119.828 131.753 119.159 125.712C118.951 123.836 118.934 121.43 118.724 119.391C118.253 114.827 118.724 109.861 119.845 106.337C120.152 105.371 121.182 103.828 121.785 101.742C122.965 97.6648 124.05 92.0646 125.681 88.5104C130.612 77.7641 129.521 85.3575 128.914 87.1866Z" fill="#BEC9DD"/>
<path fill-rule="evenodd" clip-rule="evenodd" d="M114.901 61.5952C113.288 60.8818 111.217 59.926 109.604 57.9285C107.916 55.8386 104.666 48.5118 104.666 48.5118L105.232 44.0322C105.232 44.0322 108.679 50.2239 112.558 53.1339C116.437 56.0438 118.97 56.0438 118.97 56.0438C118.97 56.0438 119.851 63.7851 114.901 61.5952Z" fill="#1DFC56"/>
<path fill-rule="evenodd" clip-rule="evenodd" d="M124.557 56.025C127.646 59.5614 128.367 69.4873 128.909 76.0928C129.452 82.6982 129.21 93.3529 128.556 94.0794C127.902 94.806 125.936 97.2189 120.602 96.6369C115.267 96.055 113.187 92.2411 113.187 92.2411C113.187 92.2411 110.941 87.9195 109.334 87.9195C107.726 87.9195 112.331 79.7021 113.626 74.1081C114.554 70.0973 114.177 64.7769 114.63 61.1441C114.8 59.7862 116.326 56.1439 116.721 55.9276C118.116 55.1633 117.419 56.0655 118.501 54.7892C119.583 53.513 120.301 51.251 120.993 51.251C121.684 51.251 121.468 52.4885 124.557 56.025Z" fill="#90FDAC"/>
<path fill-rule="evenodd" clip-rule="evenodd" d="M123.816 55.6739C127.284 59.1883 128.094 69.0522 128.704 75.6164C129.082 79.6883 129.273 84.8216 129.189 88.3049C129.137 90.4368 128.982 92.8789 128.704 93.153C128.451 93.4014 127.399 94.4632 126.092 95.1064C125.084 95.6022 123.95 95.8993 122.996 96.0033C122.945 96.0088 126.291 89.5492 126.301 84.5267C126.307 81.2119 126.265 77.3854 126.301 76.5763C126.493 72.2072 126.01 66.3182 125.383 62.2117C124.756 58.1053 121.177 53.8051 121.27 53.6565L121.809 53.415C122.289 54.0313 122.932 54.7784 123.816 55.6739Z" fill="#1DFC56"/>
<path fill-rule="evenodd" clip-rule="evenodd" d="M84.754 67.853C84.754 67.853 83.2799 66.9763 81.924 66.3127C80.5681 65.649 79.5602 65.4992 79.5602 65.319C79.5602 65.1786 77.0284 63.6518 75.7172 62.7745C75.3445 62.5251 75.0709 62.0312 75.0709 61.9002C75.0709 61.3161 75.9177 61.5139 75.9177 61.5139L77.1949 62.2212L78.5851 62.7132L80.5011 63.2485C80.5011 63.2485 80.0363 62.7914 79.9243 62.7132C79.8122 62.6349 79.3964 62.2865 79.3964 62.2865C79.3964 62.2865 78.9812 61.9813 79.3964 61.5139C79.8117 61.0464 80.5397 61.7569 80.7531 61.8814C80.9665 62.0058 81.7021 62.2948 81.7021 62.2948C81.7021 62.2948 83.0692 62.9444 83.5651 63.6155C84.061 64.2865 84.327 64.8124 84.327 64.8124L85.1766 65.319L84.754 67.853Z" fill="#DBE3F3"/>
<path fill-rule="evenodd" clip-rule="evenodd" d="M120.884 66.9493C118.628 70.0446 111.604 70.8647 108.525 71.3542C105.446 71.8437 100.019 72.1708 96.6286 71.8613C93.2385 71.5519 85.0342 68.3426 83.6048 66.8471L84.0603 64.2959C84.0603 64.2959 91.6075 66.4745 97.0911 66.3456C102.575 66.2166 107.375 65.1917 116.42 60.8918" fill="#90FDAC"/>
<path fill-rule="evenodd" clip-rule="evenodd" d="M116.878 69.4436C113.808 70.6158 109.857 71.143 108.525 71.3547C105.446 71.8442 100.019 72.1714 96.6286 71.8619C94.9277 71.7066 92.0149 70.8213 89.354 69.7888C89.354 69.7888 96.7044 71.04 107.383 69.4436C111.856 68.7749 115.749 68.0106 118.283 66.0069C119.782 64.8214 121.372 61.1774 121.372 61.1774C121.372 61.1774 121.368 64.7768 120.787 66.0069C119.763 68.1768 117.586 69.1733 116.878 69.4436Z" fill="#1DFC56"/>
<path fill-rule="evenodd" clip-rule="evenodd" d="M108.997 57.7469C107.113 55.7928 103.222 48.6574 103.222 48.6574L104.117 44.7539C104.117 44.7539 105.956 47.3953 106.855 48.4226C107.669 49.3531 107.234 50.2172 107.581 52.3019C107.813 53.695 108.997 57.7469 108.997 57.7469Z" fill="#0D419C"/>
<path fill-rule="evenodd" clip-rule="evenodd" d="M103.944 134.983V136.427H107.553L107.171 134.983" fill="#BEC9DD"/>
<path fill-rule="evenodd" clip-rule="evenodd" d="M120.546 137.148V138.592H124.877L124.407 137.148" fill="#BEC9DD"/>
<path fill-rule="evenodd" clip-rule="evenodd" d="M118.651 141.837C121.822 141.42 123.458 141.504 124.404 140.612C125.351 139.72 124.404 137.871 124.404 137.871H120.338C120.338 137.871 111.884 139.693 111.884 141.236C111.884 141.592 111.917 142.104 112.663 142.155C113.866 142.238 115.48 142.254 118.651 141.837Z" fill="#04FB43"/>
<path fill-rule="evenodd" clip-rule="evenodd" d="M108.267 134.983C108.267 134.983 108.364 137.315 107.375 138.507C106.385 139.698 96.8438 139.463 96.0648 138.507C95.2858 137.55 104.504 134.983 104.504 134.983" fill="#04FB43"/>
<path fill-rule="evenodd" clip-rule="evenodd" d="M14.4367 104.197C14.4367 104.197 14.1445 105.266 14.1903 106.52C14.2362 107.774 12.993 103.976 12.993 103.976C12.993 103.976 13.2867 102.651 13.405 102.51C13.5233 102.369 14.4367 104.197 14.4367 104.197Z" fill="#90FDAC"/>
<path fill-rule="evenodd" clip-rule="evenodd" d="M14.5405 107.356C14.5405 107.356 14.6707 108.049 14.702 108.388C14.8304 109.781 14.9054 110.737 15.0686 111.1C15.2806 111.571 15.7713 111.673 15.9005 111.922C16.0513 112.213 15.87 112.599 15.5827 112.722C15.0489 112.95 14.2635 112.803 14.2635 112.803C14.2635 112.803 13.703 112.568 13.6033 112.329C12.746 110.276 12.2602 106.081 12.3051 105.563C12.3722 104.791 13.0289 104.399 13.0289 104.399" fill="#04FB43"/>
<path fill-rule="evenodd" clip-rule="evenodd" d="M13.7148 80.8457C13.7148 80.8457 17.6909 90.4135 17.6909 91.8628C17.6909 92.5975 16.9433 93.5118 16.5184 94.661C16.0935 95.8102 15.8444 97.5409 15.2689 99.6811C14.5926 102.196 13.7148 104.445 13.7148 104.637C13.7148 104.993 14.8569 106.928 15.0987 106.828C15.3405 106.728 18.7577 100.73 19.7923 98.3749C21.1676 95.2446 22.5316 92.6774 22.3626 91.4276C21.9186 88.1427 20.1719 83.6274 20.1719 83.6274L13.7148 80.8457Z" fill="#BEC9DD"/>
<path fill-rule="evenodd" clip-rule="evenodd" d="M21.0993 76.2234C21.0993 76.2234 25.9551 88.2196 25.9551 89.9028C25.9551 91.586 25.8735 106.599 26.7079 108.744L24.7511 108.997C24.7511 108.997 22.907 102.647 22.5464 99.6422C22.1858 96.6373 22.3032 92.8348 22.115 92.0931C21.9269 91.3514 21.2405 89.5637 18.4068 86.091C15.573 82.6182 13.1313 81.4523 11.9573 79.6447C11.2575 78.4864 10.1057 75.0703 10.1057 75.0703" fill="#DBE3F3"/>
<path fill-rule="evenodd" clip-rule="evenodd" d="M27.2938 108.275L27.4298 109.719L25.9861 109.486L26.0096 108.43L27.2938 108.275Z" fill="#90FDAC"/>
<path fill-rule="evenodd" clip-rule="evenodd" d="M25.9382 110.289C25.7137 110.383 25.5372 112.922 26.9523 112.922C27.9392 112.922 30.5114 113.111 32.0847 113.111C32.8592 113.111 33.3816 112.959 33.4626 112.652C33.647 111.953 28.1299 110.385 28.1299 110.385C28.1299 110.385 26.1627 110.195 25.9382 110.289Z" fill="#04FB43"/>
<path fill-rule="evenodd" clip-rule="evenodd" d="M20.7359 57.6411C20.7359 57.6411 26.3015 56.2973 27.9223 55.697C29.5431 55.0967 30.6717 54.0423 32.1165 53.04C33.5613 52.0377 36.2626 48.5181 36.8327 48.0029L36.2411 46.5857C36.2411 46.5857 30.1413 51.3619 27.6343 52.1823C26.2139 52.6472 24.2174 53.0602 22.3626 52.777C22.035 52.727 21.7182 52.2699 21.7182 52.2699C21.7182 52.2699 20.8145 52.0489 19.9143 52.4065" fill="#90FDAC"/>
<path fill-rule="evenodd" clip-rule="evenodd" d="M21.1658 57.5014C24.5198 56.684 26.904 56.0748 27.9223 55.6976C29.5431 55.0973 30.6717 54.0429 32.1165 53.0407C33.5613 52.0384 36.2626 48.5188 36.8327 48.0035C36.8327 48.0035 36.7011 47.6883 36.6353 47.5306C36.5039 47.2159 31.6676 52.4789 28.9583 54.2747C27.204 55.4374 25.7526 55.5485 23.3826 56.501C21.0126 57.4535 22.1628 56.8773 21.8572 57.0285C21.4838 57.2132 21.1538 57.5043 21.1658 57.5014Z" fill="#1DFC56"/>
<path fill-rule="evenodd" clip-rule="evenodd" d="M28.5738 36.9643C28.5738 36.9643 29.0552 35.9032 29.408 34.9334C29.7609 33.9637 29.8067 33.2581 29.9203 33.2501C30.0088 33.2439 30.1118 31.7773 30.6015 30.8291C30.7406 30.5596 31.0387 30.3479 31.1212 30.3421C31.4892 30.3162 31.4054 30.9122 31.4054 30.9122L31.2702 31.4646L31.231 32.5023L31.2702 33.8107C31.2702 33.8107 31.4237 33.6973 31.4739 33.6291C31.5328 33.5491 31.7638 32.7526 32.0783 33.0199C32.3929 33.2871 32.0126 33.8672 31.9445 34.0207C31.8763 34.1742 31.6934 34.6448 31.6934 34.6448C31.6934 34.6448 31.5201 35.272 31.1212 35.6457C30.7222 36.0193 30.469 36.5333 30.469 36.5333L30.1907 37.1449L28.5738 36.9643Z" fill="#DBE3F3"/>
<path fill-rule="evenodd" clip-rule="evenodd" d="M20.5113 54.9557C20.5113 54.9557 24.7674 51.52 25.924 49.0504C27.0806 46.5808 30.6265 36.1576 30.6265 36.1576L29.1604 35.8012C29.1604 35.8012 24.65 45.2092 23.7962 46.3777C22.9425 47.5463 17.6927 51.7649 17.6927 51.7649L18.2882 54.7598L20.5113 54.9557Z" fill="#90FDAC"/>
<path fill-rule="evenodd" clip-rule="evenodd" d="M22.8969 52.8752C24.3881 51.4498 25.3972 50.1747 25.924 49.0498C26.5212 47.7746 29.9033 38.136 29.9033 38.136C29.9033 38.136 28.6839 40.1549 28.2627 40.9349C27.5826 42.1941 26.9722 44.1603 26.3544 45.5688C25.1651 48.2801 24.3618 49.6106 23.0561 50.963C21.7504 52.3153 19.4352 52.7217 19.4352 52.7217L22.8969 52.8752Z" fill="#1DFC56"/>
<path fill-rule="evenodd" clip-rule="evenodd" d="M21.1172 57.8227C21.1172 57.8227 21.8146 58.3548 21.7731 59.4915C21.7166 61.0366 20.1582 61.6834 20.0877 61.8568C20.0172 62.0302 20.7113 72.5014 22.8682 75.6026C22.9521 75.7233 23.0117 75.7849 23.0821 75.8678C23.1524 75.9508 22.9809 76.0206 22.9087 76.0507C20.3841 77.1051 17.9579 77.456 15.63 77.1034C12.0383 76.5593 11.87 75.3006 10.4184 74.8978C8.96684 74.4951 13.0303 67.6957 13.1874 66.3443C13.5219 63.4681 13.1874 51.9717 13.1874 51.9717L19.7665 52.6331L21.742 53.6961L21.1172 57.8227Z" fill="#90FDAC"/>
<path fill-rule="evenodd" clip-rule="evenodd" d="M20.2114 53.4158C20.2114 53.4158 19.634 51.2755 19.634 50.5047C19.634 49.7339 16.67 49.8142 16.67 49.8142L15.8804 52.9364" fill="#DBE3F3"/>
<path fill-rule="evenodd" clip-rule="evenodd" d="M17.6456 48.2129C18.6103 49.1141 20.6065 50.0846 21.2837 49.7334C21.9609 49.3823 21.5572 44.1935 21.2837 43.6643C21.0102 43.1351 18.6103 43.3975 18.6103 43.3975C18.6103 43.3975 16.6809 47.3117 17.6456 48.2129Z" fill="#DBE3F3"/>
<path opacity="0.231394" fill-rule="evenodd" clip-rule="evenodd" d="M12.9576 67.0329C13.2 67.2109 12.6812 67.7415 12.1276 68.9399C11.7049 69.8549 10.5268 72.7346 10.5268 72.7346C14.5044 72.5947 16.6457 66.953 16.5806 65.0764C16.5155 63.1999 16.7524 58.9875 17.246 58.0013C17.7397 57.0151 18.3629 54.9028 18.6814 54.387C18.9999 53.8711 18.7063 48.8558 18.6814 48.1389C18.6565 47.422 17.694 49.8295 16.7876 50.8288C7.65942 60.8914 11.0249 65.6142 12.9576 67.0329Z" fill="black"/>
<path fill-rule="evenodd" clip-rule="evenodd" d="M21.6551 42.3604C21.6551 41.3043 19.0381 40.4229 17.9553 40.4229C16.8725 40.4229 15.231 41.4187 14.9018 43.6076C14.5726 45.7965 16.2361 47.2687 14.0084 49.2851C11.7806 51.3015 10.3577 50.201 8.57424 52.0196C6.7908 53.8382 7.6132 55.6256 6.07267 56.576C4.53214 57.5264 2.97615 57.6068 1.85581 58.8408C0.735469 60.0749 -0.567187 62.6751 0.262773 63.7855C1.09273 64.8959 1.9137 63.4647 2.62158 64.1803C3.32945 64.8959 3.90248 70.0181 7.80919 70.0181C11.7159 70.0181 14.0084 64.5053 14.0084 62.6446C14.0084 60.7839 14.384 56.6203 14.9018 55.6608C15.4196 54.7014 17.1157 53.3502 17.4457 52.8504C17.7757 52.3506 18.2284 49.996 18.2284 49.2851C18.2284 48.5742 18.8363 46.0473 18.8363 46.0473C18.8363 46.0473 17.9553 46.1341 17.9553 45.3905C17.9553 44.6468 18.9679 44.7394 18.9679 44.7394C18.9679 44.7394 20.4483 44.2916 20.7314 43.8824C20.8677 43.6853 21.6551 42.9078 21.6551 42.3604Z" fill="#04FB43"/>
<path fill-rule="evenodd" clip-rule="evenodd" d="M123.274 53.6857C123.274 53.6857 122.302 52.2758 121.914 50.8317C121.526 49.3877 115.423 51.2509 115.423 51.2509L117.73 56.324C117.73 56.324 118.312 56.5764 119.594 55.9326C120.876 55.2888 123.274 53.6857 123.274 53.6857Z" fill="#DBE3F3"/>
<path fill-rule="evenodd" clip-rule="evenodd" d="M121.582 50.3434C121.582 50.3434 114.421 54.6289 113.099 53.6948C111.778 52.7606 113.303 43.9011 114.052 43.5144C114.801 43.1276 119.395 40.1291 121.278 42.7091C123.16 45.289 121.582 50.3434 121.582 50.3434Z" fill="#DBE3F3"/>
<path fill-rule="evenodd" clip-rule="evenodd" d="M123.274 53.6855C123.274 53.6855 122.302 52.2755 121.914 50.8315C121.86 50.6299 121.722 50.4766 121.501 50.3717C121.463 50.3535 121.612 50.3344 121.569 50.3192C121.508 50.2977 122.004 49.1234 121.916 49.1079C121.77 49.0822 120.944 49.2269 120.612 49.5248C120.324 49.7835 120.711 50.4481 120.726 50.5191C120.764 50.7048 120.928 50.9807 120.975 51.1984C121.072 51.6497 122.312 54.3144 122.406 54.2538C122.54 54.1665 122.641 54.1009 122.709 54.0569C122.882 53.9454 123.274 53.6855 123.274 53.6855Z" fill="#BEC9DD"/>
<path fill-rule="evenodd" clip-rule="evenodd" d="M120.878 49.5126C119.229 49.6269 119.036 49.6017 118.793 48.251C118.549 46.9003 120.049 47.0349 119.232 45.9888C118.414 44.9426 117.522 46.5424 117.522 46.5424L117.249 47.9501L116.106 47.7276L116.545 45.4653C116.545 45.4653 114.86 46.4526 113.146 46.1188C111.433 45.7849 110.495 41.1683 112.78 39.6493C115.065 38.1302 114.835 41.2886 116.049 41.5252C117.263 41.7617 121.986 39.7858 122.67 43.5744C123.353 47.363 122.526 49.3983 120.878 49.5126Z" fill="#04FB43"/>
<path fill-rule="evenodd" clip-rule="evenodd" d="M119.277 50.1704C119.277 50.1704 117.252 52.8532 116.216 53.0325L116.725 54.0941C116.725 54.0941 118.858 52.3314 119.041 51.3908C119.223 50.4503 119.277 50.1704 119.277 50.1704Z" fill="#BEC9DD"/>
<path fill-rule="evenodd" clip-rule="evenodd" d="M20.9332 49.902C20.9332 49.902 20.5208 49.7442 20.2593 49.5963C19.9979 49.4483 19.4896 49.085 19.4896 49.085C19.4896 49.085 19.8848 49.648 20.1387 49.902C20.3927 50.156 20.9332 50.5286 20.9332 50.5286V49.902Z" fill="#BEC9DD"/>
<path fill-rule="evenodd" clip-rule="evenodd" d="M19.411 61.7521C19.411 61.7521 19.4063 61.4581 19.411 61.3756C19.4157 61.2932 19.4372 61.2913 19.4372 61.2913C19.4372 61.2913 19.0801 61.3249 18.9385 61.257C18.5378 61.065 18.2486 60.7887 18.0459 60.6338C18.0459 60.6338 18.4481 61.0329 18.8886 61.9122C19.3291 62.7914 19.4896 64.243 19.4896 64.243" fill="#1DFC56"/>
<path fill-rule="evenodd" clip-rule="evenodd" d="M38.0318 48.2617L38.7701 47.7163C38.7701 47.7163 40.6883 47.528 41.4329 47.7163C42.1775 47.9046 43.7428 48.6262 43.9753 48.2617C44.0446 48.1531 44.0908 48.0681 43.862 47.8979C43.3232 47.4971 42.2496 47.1594 41.9537 47.0362C41.6579 46.9129 40.0577 46.3632 39.8211 46.0939C39.6808 45.9342 39.9351 45.8066 40.2585 45.6804C40.4805 45.5938 40.7578 45.527 40.8716 45.3742C41.1511 44.9988 40.9616 44.7539 40.7837 44.7539C40.6057 44.7539 39.5926 45.0168 39.5926 45.0168C39.5926 45.0168 38.8377 45.298 38.327 45.6804C37.8162 46.0629 37.5354 47.0362 37.5354 47.0362" fill="#EAF0FB"/>
<path fill-rule="evenodd" clip-rule="evenodd" d="M32.4091 37.5029L51.0503 33.9258L60.6341 46.7101L51.0503 49.0843L33.3712 41.6246C33.3712 41.6246 31.3494 40.6603 31.8658 39.0438L32.4091 37.5029Z" fill="#E2ECF4"/>
<path fill-rule="evenodd" clip-rule="evenodd" d="M53.4158 49.246L92.2516 40.4229L101.779 57.0155L100.003 65.6871H97.6983L94.5056 65.5754L53.4158 49.246Z" fill="#F0F7FC"/>
<circle cx="68.9352" cy="35.7308" r="3.97009" fill="#D3DCED"/>
<circle cx="198.144" cy="35.0092" r="3.97009" fill="#D3DCED"/>
<path fill-rule="evenodd" clip-rule="evenodd" d="M177.867 87.6753C176.588 87.4363 175.406 88.4179 175.406 89.7194L175.406 93.005C175.406 93.9731 176.074 94.8131 177.017 95.0311L198.122 99.9078C199.426 100.209 200.67 99.2192 200.67 97.8817V93.6623C200.67 92.6611 199.957 91.802 198.973 91.6181L177.867 87.6753Z" fill="#4FAFCB"/>
<path fill-rule="evenodd" clip-rule="evenodd" d="M177.217 78.9025C176.279 78.7173 175.406 79.4352 175.406 80.3913C175.406 81.1069 175.906 81.7253 176.606 81.8751L210.769 89.1893C211.887 89.4287 212.941 88.5762 212.941 87.4326C212.941 86.5746 212.335 85.8363 211.493 85.6701L177.217 78.9025Z" fill="#E2ECF4"/>
<path fill-rule="evenodd" clip-rule="evenodd" d="M178.762 74.5607C177.762 74.3902 176.85 75.1602 176.85 76.1742C176.85 76.963 177.412 77.6396 178.188 77.7835L216.448 84.8823C217.627 85.1012 218.716 84.1958 218.716 82.9962C218.716 82.0612 218.042 81.2624 217.12 81.1051L178.762 74.5607Z" fill="#E2ECF4"/>
<path fill-rule="evenodd" clip-rule="evenodd" d="M220.16 61.3552V50.1043L210.222 35.3691L187.677 57.1938L220.16 61.3552Z" fill="#F0F7FC"/>
<path fill-rule="evenodd" clip-rule="evenodd" d="M174.684 48.5516L174.684 55.5502L185.155 57.0244L194.896 46.9996L186.674 38.9785L174.684 48.5516Z" fill="#E2ECF4"/>
<path fill-rule="evenodd" clip-rule="evenodd" d="M176.827 95.9481C177.168 95.6615 177.802 94.3359 177.899 94.1362C177.996 93.9365 178.293 92.892 178.293 92.354C178.293 91.816 178.295 90.4317 177.781 90.767C177.267 91.1022 177.454 91.4556 177.454 91.8272C177.454 92.1988 177.216 92.4794 177.216 92.4794C177.216 92.4794 176.852 93.0142 176.587 92.5599C176.323 92.1057 176.353 90.5816 176.353 90.5816V90.2295C176.353 90.2295 175.08 91.1653 174.97 91.6589C174.86 92.1524 174.684 92.4577 174.684 92.8167C174.684 93.1757 174.97 95.0572 174.97 95.0572C174.97 95.0572 176.486 96.2347 176.827 95.9481Z" fill="#DBE3F3"/>
<path fill-rule="evenodd" clip-rule="evenodd" d="M135.705 13.7148L77.9582 19.3971V21.655L135.705 16.5685V13.7148Z" fill="#D3DCED"/>
<path fill-rule="evenodd" clip-rule="evenodd" d="M85.1766 17.5813V21.6552L89.5076 21.4434V17.3242L85.1766 17.5813Z" fill="#F0F7FC"/>
<path fill-rule="evenodd" clip-rule="evenodd" d="M112.606 14.6936V18.7675L116.937 18.5557V14.4365L112.606 14.6936Z" fill="#F0F7FC"/>
<path fill-rule="evenodd" clip-rule="evenodd" d="M97.3673 16.6765L97.4867 20.0839L101.457 19.7683L101.336 16.323L97.3673 16.6765Z" fill="#F0F7FC"/>
<path fill-rule="evenodd" clip-rule="evenodd" d="M123.571 14.6179L123.691 18.0253L127.661 17.7098L127.54 14.2645L123.571 14.6179Z" fill="#F0F7FC"/>
<path fill-rule="evenodd" clip-rule="evenodd" d="M45.1019 75.295C44.169 75.125 43.3101 75.8416 43.3101 76.7899C43.3101 77.5134 43.8202 78.1365 44.5295 78.2794L66.5045 82.707C67.5747 82.9226 68.5744 82.1043 68.5744 81.0125C68.5744 80.1774 67.9772 79.4617 67.1556 79.312L45.1019 75.295Z" fill="#E2ECF4"/>
<path fill-rule="evenodd" clip-rule="evenodd" d="M46.5265 81.9385C45.2377 81.676 44.032 82.6609 44.032 83.9762L44.032 86.334C44.032 87.2914 44.6856 88.125 45.6153 88.3535L63.1113 92.6521C64.4218 92.974 65.687 91.982 65.687 90.6326V87.539C65.687 86.5504 64.9911 85.6985 64.0225 85.5013L46.5265 81.9385Z" fill="#4FAFCB"/>
<path fill-rule="evenodd" clip-rule="evenodd" d="M45.5997 69.4506C44.7747 69.3257 44.032 69.9645 44.032 70.7989C44.032 71.4661 44.5148 72.0353 45.173 72.1442L74.6898 77.0271C75.6454 77.1852 76.5146 76.4481 76.5146 75.4795C76.5146 74.7038 75.9476 74.0445 75.1806 73.9284L45.5997 69.4506Z" fill="#E2ECF4"/>
<path fill-rule="evenodd" clip-rule="evenodd" d="M45.7275 63.6835C44.8314 63.5592 44.032 64.2553 44.032 65.16C44.032 65.8959 44.5689 66.5216 45.2962 66.6334L75.2628 71.2399C76.3006 71.3995 77.2364 70.5965 77.2364 69.5466C77.2364 68.6913 76.6057 67.9671 75.7586 67.8496L45.7275 63.6835Z" fill="#E2ECF4"/>
<ellipse cx="175.406" cy="170.714" rx="25.2642" ry="5.41376" fill="#F0F7FC"/>
<path fill-rule="evenodd" clip-rule="evenodd" d="M164.96 158.28C166 158.889 165.938 161.173 165.938 161.173C165.938 161.173 166.021 163.255 166.357 164.295C166.693 165.335 167.265 166.464 167.646 166.464C167.783 166.464 169.235 166.217 169.599 168.022C169.963 169.828 167.168 171.075 165.938 171.075C164.301 171.075 163.251 169.7 162.981 168.482C162.71 167.264 162.844 167.398 162.21 165.116C161.575 162.834 161.229 161.546 161.229 161.546C161.229 161.546 160.57 159.142 161.582 158.889C162.594 158.636 163.921 157.672 164.96 158.28Z" fill="#04FB43"/>
<path fill-rule="evenodd" clip-rule="evenodd" d="M179.089 143.103C179.089 143.103 189.024 136.214 191.732 139.845C194.441 143.477 190.936 151.471 189.47 152.855C188.004 154.24 173.396 163.856 173.396 163.856L170.81 160.41C170.81 160.41 174.035 159.043 174.639 158.578C177.641 156.266 178.799 155.702 181.637 152.855C184.474 150.009 185.226 148.44 186.157 147.03C186.157 147.03 185.402 148.15 184.982 148.722C183.179 151.178 181.079 152.584 180.063 153.566C175.519 157.956 171.647 160.112 168.001 159.787C160.268 159.098 164.823 148.722 164.823 148.722L179.089 143.103Z" fill="#DBE3F3"/>
<path fill-rule="evenodd" clip-rule="evenodd" d="M176.267 145.469C176.267 145.469 176.651 143.758 177.345 143.292C184.423 138.545 190.02 137.986 190.921 139.045C191.15 139.314 191.308 139.568 191.447 139.916C191.791 140.777 191.996 141.857 192.008 142.915C192.033 145.246 191.202 147.912 190.367 149.834C189.803 151.133 189.089 152.228 188.665 152.645C187.216 154.073 172.9 163.856 172.9 163.856L170.017 160.531C170.017 160.531 173.314 158.89 173.911 158.41C176.878 156.026 178.023 155.444 180.828 152.509C183.633 149.573 184.377 147.955 185.297 146.501C185.297 146.501 184.55 147.656 184.135 148.246C182.353 150.778 180.277 152.229 179.272 153.242C176.024 156.515 172.462 159.391 169.36 160.412C168.172 160.803 167.029 160.623 166.03 160.531C158.386 159.82 164.208 148.246 164.208 148.246L176.267 145.469Z" fill="#BEC9DD"/>
<path fill-rule="evenodd" clip-rule="evenodd" d="M185.172 149.524C185.646 148.804 185.459 147.977 185.459 147.977C185.459 147.977 184.8 148.975 184.385 149.524C182.604 151.88 180.572 153.282 179.568 154.224C177.531 156.135 175.692 157.523 173.956 158.618C172.599 159.474 171.477 160.345 170.402 160.683C170.254 160.729 170.553 160.97 170.553 160.97C171.582 160.779 173.552 159.617 175.477 158.36C177.402 157.103 180.929 153.772 180.929 153.772C180.929 153.772 184.699 150.245 185.172 149.524Z" fill="#9BA9C2"/>
<path fill-rule="evenodd" clip-rule="evenodd" d="M188.399 139.484C188.399 139.484 188.258 136.427 185.521 136.427C182.784 136.427 179.116 138.285 179.116 138.285L178.293 145.089" fill="#DBE3F3"/>
<path fill-rule="evenodd" clip-rule="evenodd" d="M179.287 144.181C179.287 144.181 186.152 139.637 188.399 139.25C188.399 139.25 188.228 137.325 187.901 136.929C187.157 136.03 185.82 136.535 184.548 136.929C181.801 137.782 178.754 139.488 178.482 140.624C178.211 141.761 178.329 145.089 178.329 145.089L179.287 144.181Z" fill="#BEC9DD"/>
<path fill-rule="evenodd" clip-rule="evenodd" d="M199.946 99.9846C199.946 99.9846 192.491 108.945 191.755 110.282C191.02 111.619 186.433 117.085 186.433 117.085C186.433 117.085 181.071 122.844 180.521 124.879C179.97 126.914 179.284 131.79 179.284 132.962C179.284 134.133 179.82 141.164 179 142.897C178.181 144.63 177.507 144.566 175.368 146.331C173.23 148.096 171.544 150.053 169.697 150.983C167.851 151.913 166.762 152.005 166.762 152.005L163.135 153.029L163.519 115.664L173.21 102.246L175.313 94.5605L177.019 95.4704L176.7 102.246L175.368 115.664L177.019 117.085C177.019 117.085 178.604 117.054 179 116.681C184.282 111.707 187.709 108.999 189.623 106.665C191.537 104.332 198.03 99.3501 198.496 99.0942C200.01 98.2621 199.946 99.9846 199.946 99.9846Z" fill="#90FDAC"/>
<path fill-rule="evenodd" clip-rule="evenodd" d="M200.415 101.663C200.415 101.663 192.227 111.096 191.71 112.279C191.193 113.462 187.458 117.738 187.028 118.366C186.598 118.993 181.747 124.215 181.204 126.203C180.66 128.191 179.982 132.953 179.982 134.097C179.982 135.241 180.511 142.108 179.702 143.8C179.191 144.869 178.738 145.238 177.941 145.799C177.476 146.127 177.546 139.169 177.64 135.164C177.734 131.158 177.64 129.727 178.809 126.203C179.978 122.679 181.679 120.413 181.679 120.413C181.679 120.413 190.278 111.703 191.356 110.208C194.305 106.118 200.127 100.298 200.335 100.335C200.963 100.447 200.415 101.663 200.415 101.663Z" fill="#1DFC56"/>
<path opacity="0.231394" fill-rule="evenodd" clip-rule="evenodd" d="M170.858 131.141C171.802 140.2 173.962 143.782 173.962 148.644C173.963 153.505 171.109 158.9 169.249 159.824C168.508 160.192 164.387 160.479 163.391 159.98C162.722 159.645 164.462 158.034 164.462 158.034L163.135 154.074C163.135 154.074 166.78 136.257 165.431 127.964C164.752 123.786 166.592 116.957 169.006 114.902C169.786 114.238 170.858 116.954 170.858 116.954C170.858 116.954 169.914 122.083 170.858 131.141Z" fill="black"/>
<path fill-rule="evenodd" clip-rule="evenodd" d="M178.293 111.32C178.293 114.555 176.886 116.938 176.886 116.938L173.962 111.988C173.962 111.988 175.214 106.832 175.879 106.832C176.544 106.832 178.02 106.832 178.02 106.832C178.02 106.832 178.293 108.085 178.293 111.32Z" fill="#DBE3F3"/>
<path fill-rule="evenodd" clip-rule="evenodd" d="M170.915 118.903C173.085 119.231 174.441 119.298 176.493 117.961C178.546 116.624 178.725 115.027 178.725 114.218C178.725 113.409 177.19 111.685 176.97 111.482C176.75 111.278 177.19 110.833 177.19 110.209C177.19 109.585 176.97 109.116 176.97 109.116C178.422 109.116 179.015 107.834 179.015 107.309C179.015 106.784 178.764 104.98 178.378 104.617C177.993 104.254 176.97 101.057 171.99 101.057C167.009 101.057 165.3 107.5 165.3 108.815C165.3 110.131 165.3 112.708 165.3 112.708C165.3 112.708 165.831 115.208 166.65 116.222C167.83 117.683 168.745 118.574 170.915 118.903Z" fill="#04FB43"/>
<path fill-rule="evenodd" clip-rule="evenodd" d="M170.009 118.188C172.228 118.506 173.615 118.57 175.714 117.278C177.814 115.986 177.996 114.443 177.996 113.661C177.996 112.879 176.427 111.213 176.202 111.016C175.977 110.82 176.427 110.389 176.427 109.786C176.427 109.184 176.202 108.73 176.202 108.73C177.687 108.73 178.293 107.491 178.293 106.984C178.293 106.477 178.036 104.733 177.642 104.382C177.391 104.159 176.876 102.824 175.219 101.885C174.274 101.349 170.009 102.905 168.821 105.533C167.632 108.161 167.983 112.68 168.821 113.661C169.468 114.419 166.865 116.955 167.597 117.397C168.228 117.778 168.981 118.041 170.009 118.188Z" fill="#04FB43"/>
<path fill-rule="evenodd" clip-rule="evenodd" d="M168.976 114.675C168.976 114.675 167.975 115.603 167.443 116.278C166.91 116.953 165.194 118.83 164.583 119.769C163.817 120.944 163.384 121.284 163.14 123.4C162.897 125.517 163.085 126.377 163.581 128.487C164.15 130.91 165.452 133.658 165.727 134.819C166.242 136.99 168.976 141.519 168.976 141.519C168.976 141.519 170.095 144.563 169.304 146.483C168.513 148.403 168.048 148.738 168.048 148.738C168.048 148.738 169.212 152.266 167.443 155.01C165.674 157.753 162.752 159.683 161.19 160.217C160.485 160.458 159.315 161.081 158.73 162.009C158.019 163.137 157.947 164.579 157.775 164.579C157.578 164.579 156.624 163.154 156.087 161.741C155.765 160.893 155.203 158.573 154.503 157.516C153.803 156.459 151.585 154.349 151.585 150.153C151.585 145.957 156.087 140.407 156.087 135.335C156.087 130.263 153.339 130.693 153.339 124.929C153.339 119.165 160.595 115.12 160.595 115.12C160.595 115.12 164.667 112.901 165.252 112.186C165.523 111.854 167.451 111.6 168.547 112.534C169.026 112.941 168.976 114.675 168.976 114.675Z" fill="#04FB43"/>
<path fill-rule="evenodd" clip-rule="evenodd" d="M169.691 114.502C169.691 114.502 168.68 115.433 168.141 116.11C167.603 116.788 165.868 118.671 165.25 119.613C164.477 120.793 164.038 121.134 163.793 123.257C163.547 125.381 163.737 126.245 164.238 128.362C164.813 130.793 166.129 133.551 166.407 134.716C166.927 136.894 169.691 141.439 169.691 141.439C169.691 141.439 170.821 144.493 170.022 146.42C169.223 148.347 168.753 148.683 168.753 148.683C168.753 148.683 169.929 152.224 168.141 154.976C166.353 157.729 163.4 159.666 161.821 160.202C161.108 160.444 159.926 161.068 159.335 162C158.616 163.132 158.544 164.579 158.37 164.579C158.171 164.579 157.206 163.149 156.664 161.731C156.338 160.88 159.25 155.772 158.543 154.712C158.471 154.604 157.891 154.712 157.891 154.712C157.891 154.712 161.821 146.779 161.821 142.997C161.821 138.786 161.57 138.19 160.213 132.378C158.857 126.567 157.891 127.791 157.891 122.007C157.891 116.223 167.395 111.529 168.459 111.906C168.747 112.008 169.021 112.154 169.257 112.353C169.741 112.762 169.691 114.502 169.691 114.502Z" fill="#04FB43"/>
<path fill-rule="evenodd" clip-rule="evenodd" d="M165.3 111.939C165.3 111.939 165.625 111.404 165.878 111.126C166.132 110.847 166.608 110.504 166.608 110.504C166.608 110.504 167.559 110.252 168.649 111.017C169.739 111.782 169.62 113.042 169.62 113.042L168.981 114.772C168.981 114.772 168.99 113.039 167.795 112.489C166.6 111.939 165.3 111.939 165.3 111.939Z" fill="#4D4D4D"/>
<path fill-rule="evenodd" clip-rule="evenodd" d="M169.989 165.976C170.469 167.225 170.934 172.254 171.985 172.796C173.036 173.338 174.519 173.439 175.837 172.796C177.156 172.153 177.76 171.063 177.52 170.071C177.279 169.078 174.937 169.078 174.937 169.078C174.937 169.078 174.01 166.351 173.327 164.537C172.643 162.722 172.329 161.734 171.497 161.246C170.666 160.758 169.411 160.839 169.01 162.122C168.608 163.405 169.51 164.727 169.989 165.976Z" fill="#04FB43"/>
<path d="M201.974 95.2007L201.977 95.197C202.353 96.2508 202.459 96.9168 202.241 97.6184C202.024 98.3199 201.508 99.0444 200.694 99.7918L199.717 100.853L199.587 101.073C199.587 101.073 199.577 101.055 199.561 101.023L199.457 101.138L199.53 100.963C199.377 100.676 198.908 99.9272 198.194 99.9915L198.393 99.6026C198.393 99.6026 198.179 98.7027 198.428 98.0908C198.677 97.4788 198.736 96.8072 198.736 96.8072C198.739 96.7924 198.866 96.1877 199.251 96.2349C199.64 96.2827 199.926 96.5728 199.881 96.9478C199.835 97.3228 199.792 97.6078 200.064 97.6413C200.33 97.674 200.608 97.5342 200.619 97.5284C200.619 97.5284 201.189 96.3402 201.254 95.8108C201.319 95.2816 201.972 95.1748 201.972 95.1748C201.972 95.1748 201.972 95.184 201.974 95.2007Z" fill="#DBE3F3"/>
</svg>
