<svg width="38" height="38" viewBox="0 0 38 38" fill="none" xmlns="http://www.w3.org/2000/svg">
<rect width="37.9294" height="37.9294" rx="9.1396" fill="#252525"/>
<path d="M19.5892 16.3714C19.0727 16.5914 18.5545 16.807 18.0369 17.0245C16.8744 17.5128 15.712 18.0015 14.5494 18.4899C14.3638 18.5679 14.2235 18.5206 14.1287 18.3482C13.8354 17.6302 13.5421 16.9121 13.2467 16.1885C13.3011 16.162 13.343 16.1392 13.3867 16.1207C14.7543 15.5468 16.1226 14.9745 17.4898 14.3994C18.3798 14.025 19.2683 13.6469 20.1574 13.2704C20.1816 13.2595 20.2057 13.2486 20.2299 13.2377C20.3391 13.1971 20.4489 13.1575 20.5577 13.1155C21.5406 12.7355 22.5601 12.6094 23.6073 12.6746C23.6692 12.6796 23.7311 12.6845 23.793 12.6896C23.9091 12.7086 24.0266 12.721 24.1408 12.7477C24.5103 12.8342 24.8786 12.9259 25.2473 13.0157C25.3082 13.0408 25.371 13.0623 25.4298 13.0916C25.8446 13.2975 26.2587 13.5051 26.673 13.712C26.6817 13.7188 26.6904 13.7256 26.6992 13.7323C26.743 13.7513 26.7869 13.7704 26.8308 13.7894C26.8622 13.8111 26.8934 13.8327 26.9247 13.8544C27.2038 14.0856 27.483 14.3168 27.7621 14.548C27.7718 14.5574 27.7815 14.5669 27.7912 14.5763C27.8901 14.6759 27.9891 14.7755 28.088 14.8751C28.0982 14.8857 28.1085 14.8963 28.1188 14.9069C28.9485 15.7745 29.4014 16.8519 29.8263 17.96C29.0196 18.298 28.2211 18.6327 27.4077 18.9736C27.264 18.6297 27.1259 18.3027 26.9907 17.9745C26.689 17.2422 26.2327 16.6273 25.5963 16.1534C24.9319 15.6585 24.1901 15.3624 23.3568 15.3144C23.3205 15.3152 23.2841 15.3161 23.2478 15.3169C23.1509 15.3169 23.0539 15.3169 22.957 15.3169C22.9206 15.3169 22.8843 15.3169 22.8479 15.3169C22.6391 15.3346 22.4191 15.3164 22.2235 15.3769C21.7115 15.5347 21.209 15.7241 20.7047 15.9065C20.4234 16.0082 20.1462 16.1209 19.8671 16.2288L19.5896 16.3713L19.5892 16.3714Z" fill="#31FC65"/>
<path d="M11.1064 11.1274C10.89 10.5964 10.6736 10.0654 10.4489 9.51403C10.5183 9.48325 10.5868 9.45159 10.6564 9.42235C11.9436 8.88188 13.231 8.34185 14.5181 7.80115C14.5569 7.78489 14.5937 7.76378 14.6314 7.74488C14.6556 7.73399 14.6798 7.72311 14.704 7.71223C15.3379 7.44842 15.9719 7.18451 16.6058 6.9207C17.4756 6.55852 18.3325 6.14082 19.2856 6.05542C19.8407 6.00573 20.4031 6.03519 20.9621 6.03486C21.0938 6.03486 21.2255 6.05816 21.3571 6.0708C21.5136 6.1051 21.6708 6.13687 21.8266 6.17413C23.1215 6.48355 24.2298 7.12361 25.1683 8.06342C26.0571 8.95355 26.5752 10.059 26.9984 11.2192C26.9962 11.246 26.994 11.2727 26.9918 11.2996C26.2034 11.6325 25.4151 11.9653 24.6143 12.3034C24.4689 11.9563 24.3292 11.6228 24.1895 11.2896C23.7536 10.2502 23.0331 9.47984 22.0059 9.01104C21.0138 8.55817 19.9923 8.49057 18.949 8.82241L18.8101 8.87529C18.7533 8.8932 18.6945 8.90661 18.6398 8.92959C17.135 9.56019 15.6302 10.1907 14.1263 10.8235C13.3969 11.1304 12.6696 11.4416 11.9413 11.7509C11.786 11.81 11.6308 11.8692 11.4624 11.9332C11.3642 11.711 11.2682 11.4933 11.1722 11.2757C11.1503 11.2262 11.1283 11.1769 11.1064 11.1274Z" fill="#31FC65"/>
<path d="M18.3543 21.5523C18.8708 21.3324 19.3891 21.1167 19.9067 20.8993C21.0692 20.4109 22.2316 19.9222 23.3941 19.4338C23.5798 19.3559 23.7201 19.4031 23.8149 19.5755C24.1082 20.2935 24.4014 21.0116 24.6969 21.7352C24.6425 21.7617 24.6006 21.7846 24.5568 21.803C23.1892 22.3769 21.821 22.9493 20.4538 23.5244C19.5638 23.8988 18.6753 24.2769 17.7861 24.6534C17.762 24.6642 17.7379 24.6751 17.7137 24.686C17.6044 24.7267 17.4946 24.7662 17.3858 24.8082C16.4029 25.1882 15.3834 25.3143 14.3362 25.2491C14.2743 25.2442 14.2124 25.2392 14.1506 25.2342C14.0345 25.2152 13.917 25.2027 13.8028 25.176C13.4332 25.0895 13.065 24.9978 12.6962 24.908C12.6353 24.883 12.5726 24.8614 12.5138 24.8322C12.0989 24.6262 11.6849 24.4187 11.2706 24.2117C11.2619 24.205 11.2532 24.1982 11.2444 24.1915C11.2005 24.1725 11.1567 24.1533 11.1127 24.1343C11.0814 24.1127 11.0502 24.091 11.0189 24.0694C10.7398 23.8382 10.4606 23.6069 10.1815 23.3758C10.1718 23.3663 10.162 23.3569 10.1524 23.3474C10.0534 23.2478 9.9545 23.1482 9.85558 23.0486C9.84535 23.0381 9.83502 23.0274 9.8248 23.0169C8.99502 22.1493 8.54215 21.0719 8.11731 19.9638C8.92401 19.6258 9.72246 19.2911 10.5359 18.9502C10.6795 19.294 10.8177 19.621 10.9529 19.9493C11.2545 20.6815 11.7109 21.2964 12.3472 21.7704C13.0117 22.2653 13.7534 22.5614 14.5867 22.6093C14.6231 22.6085 14.6595 22.6077 14.6958 22.6069C14.7927 22.6069 14.8897 22.6069 14.9866 22.6069C15.023 22.6069 15.0593 22.6069 15.0956 22.6069C15.3045 22.5892 15.5244 22.6073 15.7201 22.5469C16.2321 22.389 16.7345 22.1996 17.2389 22.0173C17.5201 21.9156 17.7974 21.8028 18.0764 21.695L18.354 21.5524L18.3543 21.5523Z" fill="#31FC65"/>
<path d="M26.8372 26.7964C27.0536 27.3274 27.2701 27.8584 27.4948 28.4098C27.4254 28.4405 27.3568 28.4722 27.2872 28.5014C26.0001 29.0419 24.7127 29.5819 23.4255 30.1226C23.3867 30.1389 23.3499 30.16 23.3122 30.1789C23.288 30.1898 23.2638 30.2007 23.2397 30.2116C22.6058 30.4754 21.9717 30.7393 21.3378 31.0031C20.4679 31.3652 19.6111 31.7829 18.6579 31.8683C18.1028 31.918 17.5405 31.8885 16.9814 31.8888C16.8497 31.8888 16.718 31.8655 16.5865 31.8529C16.4299 31.8186 16.2728 31.7868 16.1169 31.7496C14.822 31.4401 13.7137 30.8001 12.7752 29.8603C11.8864 28.9701 11.3684 27.8647 10.9452 26.7045C10.9474 26.6777 10.9496 26.651 10.9518 26.6241C11.7401 26.2912 12.5285 25.9584 13.3292 25.6202C13.4747 25.9674 13.6144 26.3009 13.7541 26.6341C14.1899 27.6735 14.9104 28.4438 15.9376 28.9127C16.9297 29.3655 17.9512 29.4331 18.9946 29.1013L19.1334 29.0484C19.1902 29.0305 19.249 29.0171 19.3038 28.9941C20.8086 28.3635 22.3134 27.733 23.8173 27.1002C24.5466 26.7933 25.2739 26.4821 26.0023 26.1728C26.1576 26.1137 26.3128 26.0545 26.4812 25.9904C26.5793 26.2127 26.6753 26.4303 26.7714 26.648C26.7932 26.6974 26.8152 26.7468 26.8371 26.7963L26.8372 26.7964Z" fill="#31FC65"/>
</svg>
